<svg id="Layer_1" data-name="Layer 1" xmlns="http://www.w3.org/2000/svg" viewBox="0 0 93.38 21.1"><defs><style>.cls-1{fill:#5e2c28;}.cls-1,.cls-2,.cls-3,.cls-4,.cls-5{fill-rule:evenodd;}.cls-2{fill:#c3d111;}.cls-3{fill:#e6232e;}.cls-4{fill:#f9bf3e;}.cls-5{fill:#5bbde5;}</style></defs><path class="cls-1" d="M364.35,393.19l-1.86,1.59a3.1,3.1,0,0,0-2.81-1.85c-2.07,0-3.29.78-3.29,3.09v3.22c0,.88.36,3.16,2.7,3.16a3.93,3.93,0,0,0,3.35-1.82l2,1.51a6.08,6.08,0,0,1-5.27,2.85,5.3,5.3,0,0,1-5.63-5.37c0-2.35.09-1.91.09-4.19a5.07,5.07,0,0,1,4.79-4.87A5.84,5.84,0,0,1,364.35,393.19Z" transform="translate(-353.53 -390.27)"/><path class="cls-1" d="M379.46,390.75h2.81s0,6.38,0,8,.62,3.76,2.77,3.76,3-1,3-3.68v-8h2.81v14h-2.42v-1.27a6.81,6.81,0,0,1-4.12,1.43,5,5,0,0,1-4.83-5.07C379.46,397,379.42,390.75,379.46,390.75Z" transform="translate(-353.53 -390.27)"/><path class="cls-2" d="M432.08,405h-2.81s0-6.38,0-8-.63-3.77-2.78-3.77-3,1.49-3,4v7.62h-2.81v-14h2.42v1.26s.76-1.52,3.82-1.42a5,5,0,0,1,5.13,5.07C432.08,398.76,432.12,405,432.08,405Z" transform="translate(-353.53 -390.27)"/><path class="cls-1" d="M370.61,390.48h1.44a4.88,4.88,0,0,1,4.87,4.87V400a4.88,4.88,0,0,1-4.87,4.88h-1.44a4.88,4.88,0,0,1-4.87-4.88v-4.63a4.88,4.88,0,0,1,4.87-4.87Zm.2,2.45a2.77,2.77,0,0,0-2.45,3v3.47a2.77,2.77,0,0,0,2.45,3h1.13a2.77,2.77,0,0,0,2.44-3v-3.47a2.77,2.77,0,0,0-2.44-3Z" transform="translate(-353.53 -390.27)"/><path class="cls-3" d="M393.57,390.83v19.66h3.05v-6.55s.63,1,3.41,1a5.12,5.12,0,0,0,5.07-4.84v-4.72c0-1.38-1.18-4.6-4.32-4.75s-4.09.67-4.52,1.5v-1.34l-2.69,0Zm5.25,2.1h1.4a2.77,2.77,0,0,1,2.44,3v3.47a2.77,2.77,0,0,1-2.44,3h-1.4a2.77,2.77,0,0,1-2.44-3v-3.47A2.77,2.77,0,0,1,398.82,392.93Z" transform="translate(-353.53 -390.27)"/><path class="cls-4" d="M407.88,391.78l1.14,1.9a5.17,5.17,0,0,1,3.45-.75,2.69,2.69,0,0,1,2.71,3,5.59,5.59,0,0,0-3.22-.79c-2.18,0-4.28,1.43-4.72,3.17s-.39,5.83,3.1,6.5,5.1-1.23,5.1-1.23v1.31h2.39v-10c0-5-6.94-5.83-9.95-3.13Zm4.24,5.64h.35a2.38,2.38,0,0,1,2.38,2.37v.48a2.38,2.38,0,0,1-2.38,2.37h-.35a2.37,2.37,0,0,1-2.37-2.37v-.48A2.38,2.38,0,0,1,412.12,397.42Z" transform="translate(-353.53 -390.27)"/><path class="cls-5" d="M443.29,391.73a3.11,3.11,0,0,1,3.58-.86l0,2.1a2.4,2.4,0,0,0-2.31.44,5.12,5.12,0,0,1,.5,2.21h0a4.8,4.8,0,0,1-4.64,4.91c-1.63,0-2.17.11-3.63,2.17-.23.44.17.27.17.27.9-.53,3.86-.73,5.77-.36a4.69,4.69,0,0,1,3.85,4.33c.07,2.31-3.46,4.43-3.46,4.43l-1.22-2c1.17-1.17,2.71-2,1.23-3.57s-5.11-.74-6.82-.36-2.08-1.48-1.92-2.87a4.45,4.45,0,0,1,2-2.79,5,5,0,0,1-2.16-4.14h0a4.78,4.78,0,0,1,4.64-4.91h1.51a4.48,4.48,0,0,1,2.83,1ZM439.5,393a2.65,2.65,0,0,0-2.77,2.5V396a2.64,2.64,0,0,0,2.77,2.49h.43a2.65,2.65,0,0,0,2.76-2.49v-.51a2.65,2.65,0,0,0-2.76-2.5Z" transform="translate(-353.53 -390.27)"/></svg>