<svg id="Layer_1" data-name="Layer 1" xmlns="http://www.w3.org/2000/svg" viewBox="0 0 583 183.35"><defs><style>.cls-1{fill:#557ebf;}.cls-2{fill:#ea4535;}.cls-3{fill:#f9bc15;}.cls-4{fill:#36a852;}</style></defs><path class="cls-1" d="M109.05,98.89v19.62h46.89c-1.43,11-5.1,19.06-10.68,24.72-6.86,6.86-17.55,14.35-36.21,14.35-28.87,0-51.44-23.28-51.44-52.15s22.57-52.16,51.44-52.16a49.9,49.9,0,0,1,35.33,14l13.8-13.79c-11.65-11.33-27.28-19.94-49.13-19.94-39.56,0-72.82,32.22-72.82,71.78s33.26,71.77,72.82,71.77c21.37,0,37.48-7,50.08-20.09,12.92-12.92,17-31.19,17-45.86a62.74,62.74,0,0,0-1-12.28Z" transform="translate(-36.23 -33.57)"/><path class="cls-2" d="M234.74,82.93c-25.6,0-46.5,19.46-46.5,46.34,0,26.64,20.9,46.34,46.5,46.34s46.5-19.62,46.5-46.34c0-26.88-20.9-46.34-46.5-46.34m0,74.42c-14,0-26.16-11.57-26.16-28.08,0-16.67,12.12-28.07,26.16-28.07s26.16,11.4,26.16,28.07c0,16.51-12.12,28.08-26.16,28.08" transform="translate(-36.23 -33.57)"/><path class="cls-1" d="M462.68,93.3H462c-4.55-5.42-13.32-10.37-24.4-10.37-23.13,0-43.31,20.18-43.31,46.34,0,26,20.18,46.34,43.31,46.34,11.08,0,19.85-5,24.4-10.53h.72v6.46c0,17.71-9.49,27.2-24.73,27.2-12.44,0-20.18-8.93-23.37-16.51l-17.7,7.34c5.1,12.28,18.58,27.35,41.07,27.35,23.85,0,44-14,44-48.25V85.33h-19.3Zm-23.37,64.05c-14,0-24.73-12-24.73-28.08,0-16.35,10.69-28.07,24.73-28.07,13.88,0,24.72,12,24.72,28.23s-10.84,27.92-24.72,27.92" transform="translate(-36.23 -33.57)"/><path class="cls-3" d="M338.42,82.93c-25.6,0-46.5,19.46-46.5,46.34,0,26.64,20.9,46.34,46.5,46.34s46.5-19.62,46.5-46.34c0-26.88-20.9-46.34-46.5-46.34m0,74.42c-14,0-26.16-11.57-26.16-28.08,0-16.67,12.12-28.07,26.16-28.07s26.16,11.4,26.16,28.07c0,16.51-12.12,28.08-26.16,28.08" transform="translate(-36.23 -33.57)"/><rect class="cls-4" x="461.69" y="1.91" width="20.02" height="140.13"/><path class="cls-2" d="M579.76,157.35c-10.37,0-17.71-4.71-22.5-14l62-25.6-2.07-5.27c-3.83-10.36-15.63-29.51-39.64-29.51-23.84,0-43.7,18.75-43.7,46.34,0,26,19.62,46.34,45.94,46.34a46.24,46.24,0,0,0,38.6-20.5l-15.8-10.52c-5.26,7.65-12.44,12.76-22.8,12.76m-1.44-57c8.22,0,15.23,4.23,17.55,10.21L554,127.84c0-19.46,13.79-27.52,24.32-27.52" transform="translate(-36.23 -33.57)"/></svg>