<svg width="199" height="20" viewBox="0 0 199 20" fill="none" xmlns="http://www.w3.org/2000/svg">
<path d="M6.53984 19H0.0898438V17.7L2.18984 17.225V2.95L0.0898438 2.45V1.15H6.53984V2.45L4.43984 2.95V17.225L6.53984 17.7V19ZM28.8865 19H26.2615L16.7115 4.175H16.6115C16.6282 4.475 16.6449 4.80833 16.6615 5.175C16.6949 5.54167 16.7199 5.94167 16.7365 6.375C16.7532 6.79167 16.7699 7.225 16.7865 7.675C16.8032 8.125 16.8115 8.575 16.8115 9.025V19H14.7365V1.15H17.3365L26.8615 15.925H26.9615C26.9449 15.725 26.9282 15.45 26.9115 15.1C26.8949 14.7333 26.8782 14.3333 26.8615 13.9C26.8449 13.45 26.8282 12.9917 26.8115 12.525C26.7949 12.0583 26.7865 11.625 26.7865 11.225V1.15H28.8865V19ZM44.1307 19H41.8807V3.125H36.3057V1.15H49.6807V3.125H44.1307V19ZM67.0973 19H57.1223V1.15H67.0973V3.125H59.3723V8.7H66.6473V10.65H59.3723V17.025H67.0973V19ZM80.6889 1.15C82.1722 1.15 83.3889 1.34167 84.3389 1.725C85.3055 2.09167 86.0222 2.65 86.4889 3.4C86.9555 4.15 87.1889 5.09167 87.1889 6.225C87.1889 7.175 87.0139 7.96667 86.6639 8.6C86.3139 9.23333 85.8639 9.74167 85.3139 10.125C84.7805 10.4917 84.2139 10.7833 83.6139 11L88.5139 19H85.8889L81.5639 11.625H78.0139V19H75.7639V1.15H80.6889ZM80.5639 3.1H78.0139V9.725H80.6889C81.6555 9.725 82.4472 9.6 83.0639 9.35C83.6805 9.08333 84.1305 8.7 84.4139 8.2C84.7139 7.7 84.8639 7.075 84.8639 6.325C84.8639 5.54167 84.7055 4.91667 84.3889 4.45C84.0889 3.98333 83.6222 3.64167 82.9889 3.425C82.3555 3.20833 81.5472 3.1 80.5639 3.1ZM107.266 19L105.116 13.475H98.0406L95.9156 19H93.6406L100.616 1.075H102.641L109.591 19H107.266ZM102.441 6.075C102.391 5.94167 102.307 5.7 102.191 5.35C102.074 5 101.957 4.64167 101.841 4.275C101.741 3.89167 101.657 3.6 101.591 3.4C101.507 3.73333 101.416 4.075 101.316 4.425C101.232 4.75833 101.141 5.06667 101.041 5.35C100.957 5.63333 100.882 5.875 100.816 6.075L98.7906 11.475H104.441L102.441 6.075ZM123.944 2.875C122.994 2.875 122.136 3.04167 121.369 3.375C120.602 3.69167 119.952 4.16667 119.419 4.8C118.886 5.41667 118.477 6.175 118.194 7.075C117.911 7.95833 117.769 8.95833 117.769 10.075C117.769 11.5417 117.994 12.8167 118.444 13.9C118.911 14.9833 119.594 15.8167 120.494 16.4C121.411 16.9833 122.552 17.275 123.919 17.275C124.702 17.275 125.444 17.2083 126.144 17.075C126.844 16.9417 127.527 16.775 128.194 16.575V18.525C127.527 18.775 126.836 18.9583 126.119 19.075C125.419 19.1917 124.577 19.25 123.594 19.25C121.777 19.25 120.261 18.875 119.044 18.125C117.827 17.375 116.911 16.3083 116.294 14.925C115.694 13.5417 115.394 11.9167 115.394 10.05C115.394 8.7 115.577 7.46667 115.944 6.35C116.327 5.23333 116.877 4.26667 117.594 3.45C118.327 2.63333 119.227 2.00833 120.294 1.575C121.361 1.125 122.586 0.899999 123.969 0.899999C124.886 0.899999 125.769 0.991666 126.619 1.175C127.469 1.35833 128.227 1.61667 128.894 1.95L127.994 3.85C127.444 3.6 126.827 3.375 126.144 3.175C125.477 2.975 124.744 2.875 123.944 2.875ZM142.49 19H140.24V3.125H134.665V1.15H148.04V3.125H142.49V19ZM160.507 19H154.057V17.7L156.157 17.225V2.95L154.057 2.45V1.15H160.507V2.45L158.407 2.95V17.225L160.507 17.7V19ZM181.278 1.15L174.903 19H172.653L166.278 1.15H168.628L172.653 12.6C172.837 13.0833 172.995 13.55 173.128 14C173.262 14.45 173.378 14.8833 173.478 15.3C173.595 15.7 173.695 16.1 173.778 16.5C173.862 16.1 173.953 15.6917 174.053 15.275C174.17 14.8583 174.295 14.425 174.428 13.975C174.578 13.525 174.737 13.05 174.903 12.55L178.903 1.15H181.278ZM198.419 19H188.444V1.15H198.419V3.125H190.694V8.7H197.969V10.65H190.694V17.025H198.419V19Z" fill="black"/>
</svg>
