<svg id="Layer_1" data-name="Layer 1" xmlns="http://www.w3.org/2000/svg" viewBox="0 0 322.82 59.92"><defs><style>.cls-1{fill:#2db400;}</style></defs><polygon class="cls-1" points="43.09 0 43.09 30.23 22.39 0 0 0 0 59.92 22.31 59.92 22.31 29.69 43.02 59.92 65.4 59.92 65.4 0 43.09 0"/><path class="cls-1" d="M543.6,407.77c7.92-2.21,13-7.93,13-17.12,0-15.43-12.25-20.39-28.39-20.39H500.37v59.92h22.3V411.47L536,430.18h25.64Zm-11-12.21c-1.31,1.06-3.82,1.58-5.88,1.58H522v-11.8h4.69c2.26,0,4.82.53,6.07,1.61a5.49,5.49,0,0,1,1.81,4.4A5.09,5.09,0,0,1,532.64,395.56Z" transform="translate(-238.81 -370.26)"/><path class="cls-1" d="M446,370.26h45.23v15.61H468.09v7.05h21.32v14.73H468.09v6.92h23.85v15.61H446Z" transform="translate(-238.81 -370.26)"/><path class="cls-1" d="M357.91,370.26H332.46L309,430.18h24.82l2.17-7.82H354.4l2.17,7.82h24.81Zm-18.28,38.25,5.25-19.77h.61l5.26,19.77Z" transform="translate(-238.81 -370.26)"/><polygon class="cls-1" points="178.08 0 167.09 36.13 166.47 36.13 155.48 0 131.15 0 156.25 59.92 177.31 59.92 202.41 0 178.08 0"/></svg>