<svg id="Layer_1" data-name="Layer 1" xmlns="http://www.w3.org/2000/svg" viewBox="0 0 208.5 196.6"><defs><style>.cls-1{fill:#566270;}.cls-2{fill:none;}.cls-3{fill:#fff;}</style></defs><circle class="cls-1" cx="108.5" cy="93.7" r="93.7"/><path class="cls-1" d="M296.4,407.9l-.1-5,11.2-.3-.2-9.6-11.2.3-.1-5,28-.7.1,5-12.4.3.2,9.6,12.4-.3.1,5Z" transform="translate(-296 -301.9)"/><path class="cls-1" d="M310.6,421.4l15.3-14.8,1.5,6-6.3,5.8c-1.9,1.6-3.6,3.1-5.5,4.8v.2c2.4.6,4.8,1.2,7.1,1.8l8.3,2.1,1.4,5.9L312,427.1l-9.5,2.3-1.3-5.7Z" transform="translate(-296 -301.9)"/><path class="cls-1" d="M317.7,443.5l16.7-10.6,3.3,5.2L320.5,449c-4.4,2.8-5.1,5.9-3.1,9s5.1,4,9.5,1.1l17.2-10.9,3.2,5-16.7,10.6c-7.4,4.7-13.2,3.1-17.2-3.2S310.3,448.2,317.7,443.5Z" transform="translate(-296 -301.9)"/><path class="cls-1" d="M350.8,453.2l4.6,4-3.9,17.6-1.7,6.5.1.1c1.7-2.3,3.7-5.4,5.7-7.8l8.1-9.2,4.2,3.7-18.5,21.3-4.6-4,4-17.6,1.7-6.5-.1-.1c-1.8,2.4-3.6,5.3-5.7,7.7l-8.1,9.2-4.2-3.7Z" transform="translate(-296 -301.9)"/><path class="cls-1" d="M380.2,466.2l6.5,2.2.9,30.1-5.8-2,.2-15.8c0-3.1.1-6.5.3-9.7l-.2-.1c-1.9,2.6-3.9,5.4-5.7,7.9l-9.6,12.6-5.6-1.9Z" transform="translate(-296 -301.9)"/><path class="cls-1" d="M494.4,470.9l7-7.6,3.1,2.9-17.9,19.5-3.1-2.9,7-7.6-17.6-16.3,4-4.3Z" transform="translate(-296 -301.9)"/><path class="cls-2" d="M349.8,481.3h0c1.5-1.8,3.1-4.2,4.8-6.4-.9-.6-1.9-1.1-2.8-1.7l-.4,1.6Z" transform="translate(-296 -301.9)"/><path class="cls-2" d="M317.5,458c2,3.1,5.1,4,9.5,1.1l5.5-3.5a83.29,83.29,0,0,1-7-9.8l-4.9,3.1C316.2,451.7,315.6,454.9,317.5,458Z" transform="translate(-296 -301.9)"/><path class="cls-2" d="M382,480.8c0-3.1.1-6.5.3-9.7l-.2-.1c-1.9,2.6-3.9,5.4-5.7,7.9l-2.2,2.9,7.8,2.6Z" transform="translate(-296 -301.9)"/><path class="cls-3" d="M324.3,402.1l-12.4.3-.3-9.6,12.4-.3-.1-5-12.8.3c-.2,2.6-.4,5.1-.4,7.8a95.14,95.14,0,0,0,.8,11.9l12.8-.3Z" transform="translate(-296 -301.9)"/><path class="cls-3" d="M330.9,427.3l-8.3-2.1-7.1-1.8v-.2c1.9-1.7,3.7-3.2,5.5-4.8l6.4-5.8-1.5-6-12.2,11.8a90.44,90.44,0,0,0,3.1,10.1l15.5,4.6Z" transform="translate(-296 -301.9)"/><path class="cls-3" d="M344.1,448.2l-11.6,7.4c1.3,1.5,2.6,3,4,4.4l10.8-6.8Z" transform="translate(-296 -301.9)"/><path class="cls-3" d="M337.7,438.1l-3.3-5.2-12.1,7.7c1,1.8,2.1,3.5,3.2,5.3Z" transform="translate(-296 -301.9)"/><path class="cls-3" d="M363.7,464.4l-8.1,9.2c-.3.4-.7.9-1,1.3,1.6,1,3.1,2,4.7,2.9l8.5-9.7Z" transform="translate(-296 -301.9)"/><path class="cls-3" d="M355.4,457.2l-4.6-4-9.9,11.3c1.3,1.2,2.6,2.5,4.1,3.7,1.8-2.2,3.5-4.8,5.2-7.1l.1.1-1.7,6.5-.6,2.7c1.3,1,2.5,2,3.9,2.9Z" transform="translate(-296 -301.9)"/><path class="cls-3" d="M384.7,487.3l.6-1.7-3.4-1.2v2.2C382.8,486.8,383.8,487.1,384.7,487.3Z" transform="translate(-296 -301.9)"/><path class="cls-3" d="M374.1,481.7l-3.3-1.1-.8,2.2c.8.3,1.7.6,2.5.9Z" transform="translate(-296 -301.9)"/><path class="cls-3" d="M380.2,466.2l-12.8,15.5a27.73,27.73,0,0,0,2.6,1l.8-2.2,3.3,1.1,2.2-2.9c1.9-2.5,3.9-5.2,5.7-7.9l.2.1c-.2,3.2-.2,6.6-.3,9.7v3.6l3.4,1.2-.6,1.7c.9.2,1.7.3,2.6.5l-.6-19.3Z" transform="translate(-296 -301.9)"/></svg>