<svg width="232" height="42" viewBox="0 0 232 42" fill="none" xmlns="http://www.w3.org/2000/svg">
<path d="M61.7982 -9.53674e-07H63.7982V14H61.7982V-9.53674e-07ZM53.7582 14H51.7582V-9.53674e-07H53.7582V14ZM61.9782 7.76H53.5582V6.02H61.9782V7.76ZM85.3687 14V8.64L85.8287 9.88L79.8087 -9.53674e-07H81.9487L87.0087 8.34H85.8487L90.9287 -9.53674e-07H92.9087L86.9087 9.88L87.3487 8.64V14H85.3687ZM114.543 14.16C112.703 14.16 111.256 13.6333 110.203 12.58C109.149 11.5267 108.623 9.98667 108.623 7.96V-9.53674e-07H110.623V7.88C110.623 9.44 110.963 10.58 111.643 11.3C112.336 12.02 113.309 12.38 114.563 12.38C115.829 12.38 116.803 12.02 117.483 11.3C118.176 10.58 118.523 9.44 118.523 7.88V-9.53674e-07H120.463V7.96C120.463 9.98667 119.936 11.5267 118.883 12.58C117.843 13.6333 116.396 14.16 114.543 14.16ZM138.563 14V-9.53674e-07H140.203L149.463 11.5H148.603V-9.53674e-07H150.603V14H148.963L139.703 2.5H140.563V14H138.563ZM166.673 14L173.013 -9.53674e-07H174.993L181.353 14H179.253L173.593 1.12H174.393L168.733 14H166.673ZM169.373 10.5L169.913 8.9H177.793L178.373 10.5H169.373ZM0.848047 41V27H6.30805C7.53471 27 8.58138 27.1933 9.44805 27.58C10.3147 27.9667 10.9814 28.5267 11.448 29.26C11.9147 29.9933 12.148 30.8667 12.148 31.88C12.148 32.8933 11.9147 33.7667 11.448 34.5C10.9814 35.22 10.3147 35.78 9.44805 36.18C8.58138 36.5667 7.53471 36.76 6.30805 36.76H1.94805L2.84805 35.82V41H0.848047ZM2.84805 36.02L1.94805 35.02H6.24805C7.52805 35.02 8.49471 34.7467 9.14805 34.2C9.81471 33.6533 10.148 32.88 10.148 31.88C10.148 30.88 9.81471 30.1067 9.14805 29.56C8.49471 29.0133 7.52805 28.74 6.24805 28.74H1.94805L2.84805 27.74V36.02ZM35.6016 41.16C34.535 41.16 33.5416 40.98 32.6216 40.62C31.715 40.26 30.9283 39.76 30.2616 39.12C29.595 38.4667 29.075 37.7067 28.7016 36.84C28.3283 35.9733 28.1416 35.0267 28.1416 34C28.1416 32.9733 28.3283 32.0267 28.7016 31.16C29.075 30.2933 29.595 29.54 30.2616 28.9C30.9283 28.2467 31.715 27.74 32.6216 27.38C33.5283 27.02 34.5216 26.84 35.6016 26.84C36.6683 26.84 37.6483 27.02 38.5416 27.38C39.4483 27.7267 40.235 28.2267 40.9016 28.88C41.5816 29.52 42.1016 30.2733 42.4616 31.14C42.835 32.0067 43.0216 32.96 43.0216 34C43.0216 35.04 42.835 35.9933 42.4616 36.86C42.1016 37.7267 41.5816 38.4867 40.9016 39.14C40.235 39.78 39.4483 40.28 38.5416 40.64C37.6483 40.9867 36.6683 41.16 35.6016 41.16ZM35.6016 39.38C36.375 39.38 37.0883 39.2467 37.7416 38.98C38.4083 38.7133 38.9816 38.34 39.4616 37.86C39.955 37.3667 40.335 36.7933 40.6016 36.14C40.8816 35.4867 41.0216 34.7733 41.0216 34C41.0216 33.2267 40.8816 32.5133 40.6016 31.86C40.335 31.2067 39.955 30.64 39.4616 30.16C38.9816 29.6667 38.4083 29.2867 37.7416 29.02C37.0883 28.7533 36.375 28.62 35.6016 28.62C34.815 28.62 34.0883 28.7533 33.4216 29.02C32.7683 29.2867 32.195 29.6667 31.7016 30.16C31.2083 30.64 30.8216 31.2067 30.5416 31.86C30.275 32.5133 30.1416 33.2267 30.1416 34C30.1416 34.7733 30.275 35.4867 30.5416 36.14C30.8216 36.7933 31.2083 37.3667 31.7016 37.86C32.195 38.34 32.7683 38.7133 33.4216 38.98C34.0883 39.2467 34.815 39.38 35.6016 39.38ZM60.0785 41V27H65.5385C66.7652 27 67.8118 27.1933 68.6785 27.58C69.5452 27.9667 70.2118 28.5267 70.6785 29.26C71.1452 29.9933 71.3785 30.8667 71.3785 31.88C71.3785 32.8933 71.1452 33.7667 70.6785 34.5C70.2118 35.22 69.5452 35.7733 68.6785 36.16C67.8118 36.5467 66.7652 36.74 65.5385 36.74H61.1785L62.0785 35.82V41H60.0785ZM69.4385 41L65.8785 35.92H68.0185L71.6185 41H69.4385ZM62.0785 36.02L61.1785 35.04H65.4785C66.7585 35.04 67.7252 34.7667 68.3785 34.22C69.0452 33.66 69.3785 32.88 69.3785 31.88C69.3785 30.88 69.0452 30.1067 68.3785 29.56C67.7252 29.0133 66.7585 28.74 65.4785 28.74H61.1785L62.0785 27.74V36.02ZM91.1945 41V28.74H86.3945V27H97.9745V28.74H93.1745V41H91.1945ZM115.953 33.62H123.173V35.34H115.953V33.62ZM116.153 41H114.153V27H124.033V28.74H116.153V41ZM147.012 41.16C145.945 41.16 144.952 40.98 144.032 40.62C143.125 40.26 142.338 39.76 141.672 39.12C141.005 38.4667 140.485 37.7067 140.112 36.84C139.738 35.9733 139.552 35.0267 139.552 34C139.552 32.9733 139.738 32.0267 140.112 31.16C140.485 30.2933 141.005 29.54 141.672 28.9C142.338 28.2467 143.125 27.74 144.032 27.38C144.938 27.02 145.932 26.84 147.012 26.84C148.078 26.84 149.058 27.02 149.952 27.38C150.858 27.7267 151.645 28.2267 152.312 28.88C152.992 29.52 153.512 30.2733 153.872 31.14C154.245 32.0067 154.432 32.96 154.432 34C154.432 35.04 154.245 35.9933 153.872 36.86C153.512 37.7267 152.992 38.4867 152.312 39.14C151.645 39.78 150.858 40.28 149.952 40.64C149.058 40.9867 148.078 41.16 147.012 41.16ZM147.012 39.38C147.785 39.38 148.498 39.2467 149.152 38.98C149.818 38.7133 150.392 38.34 150.872 37.86C151.365 37.3667 151.745 36.7933 152.012 36.14C152.292 35.4867 152.432 34.7733 152.432 34C152.432 33.2267 152.292 32.5133 152.012 31.86C151.745 31.2067 151.365 30.64 150.872 30.16C150.392 29.6667 149.818 29.2867 149.152 29.02C148.498 28.7533 147.785 28.62 147.012 28.62C146.225 28.62 145.498 28.7533 144.832 29.02C144.178 29.2867 143.605 29.6667 143.112 30.16C142.618 30.64 142.232 31.2067 141.952 31.86C141.685 32.5133 141.552 33.2267 141.552 34C141.552 34.7733 141.685 35.4867 141.952 36.14C142.232 36.7933 142.618 37.3667 143.112 37.86C143.605 38.34 144.178 38.7133 144.832 38.98C145.498 39.2467 146.225 39.38 147.012 39.38ZM171.489 41V27H173.489V39.26H181.069V41H171.489ZM197.364 41V27H199.364V41H197.364ZM223.875 41.16C222.808 41.16 221.815 40.98 220.895 40.62C219.988 40.26 219.202 39.76 218.535 39.12C217.868 38.4667 217.348 37.7067 216.975 36.84C216.602 35.9733 216.415 35.0267 216.415 34C216.415 32.9733 216.602 32.0267 216.975 31.16C217.348 30.2933 217.868 29.54 218.535 28.9C219.202 28.2467 219.988 27.74 220.895 27.38C221.802 27.02 222.795 26.84 223.875 26.84C224.942 26.84 225.922 27.02 226.815 27.38C227.722 27.7267 228.508 28.2267 229.175 28.88C229.855 29.52 230.375 30.2733 230.735 31.14C231.108 32.0067 231.295 32.96 231.295 34C231.295 35.04 231.108 35.9933 230.735 36.86C230.375 37.7267 229.855 38.4867 229.175 39.14C228.508 39.78 227.722 40.28 226.815 40.64C225.922 40.9867 224.942 41.16 223.875 41.16ZM223.875 39.38C224.648 39.38 225.362 39.2467 226.015 38.98C226.682 38.7133 227.255 38.34 227.735 37.86C228.228 37.3667 228.608 36.7933 228.875 36.14C229.155 35.4867 229.295 34.7733 229.295 34C229.295 33.2267 229.155 32.5133 228.875 31.86C228.608 31.2067 228.228 30.64 227.735 30.16C227.255 29.6667 226.682 29.2867 226.015 29.02C225.362 28.7533 224.648 28.62 223.875 28.62C223.088 28.62 222.362 28.7533 221.695 29.02C221.042 29.2867 220.468 29.6667 219.975 30.16C219.482 30.64 219.095 31.2067 218.815 31.86C218.548 32.5133 218.415 33.2267 218.415 34C218.415 34.7733 218.548 35.4867 218.815 36.14C219.095 36.7933 219.482 37.3667 219.975 37.86C220.468 38.34 221.042 38.7133 221.695 38.98C222.362 39.2467 223.088 39.38 223.875 39.38Z" fill="black"/>
</svg>
