<svg width="216" height="46" viewBox="0 0 216 46" fill="none" xmlns="http://www.w3.org/2000/svg">
<path d="M58.6955 15H56.4755V8.48H50.3155V15H48.0955V0.719999H50.3155V6.64H56.4755V0.719999H58.6955V15ZM80.017 7.4L83.197 0.719999H85.577L81.137 9.46V15H78.917V9.54L74.457 0.719999H76.857L80.017 7.4ZM111.85 9.96C111.85 10.9467 111.65 11.84 111.25 12.64C110.864 13.4267 110.27 14.0533 109.47 14.52C108.67 14.9733 107.67 15.2 106.47 15.2C104.75 15.2 103.437 14.72 102.53 13.76C101.637 12.7867 101.19 11.5067 101.19 9.92V0.719999H103.41V9.82C103.41 10.9933 103.67 11.88 104.19 12.48C104.71 13.0667 105.497 13.36 106.55 13.36C107.284 13.36 107.87 13.2133 108.31 12.92C108.764 12.6267 109.097 12.22 109.31 11.7C109.524 11.1667 109.63 10.5333 109.63 9.8V0.719999H111.85V9.96ZM140.437 15H137.717L131.137 3.46H131.057C131.07 3.72667 131.083 4.01333 131.097 4.32C131.123 4.62667 131.143 4.95333 131.157 5.3C131.17 5.63333 131.183 5.98 131.197 6.34C131.21 6.68667 131.223 7.04 131.237 7.4V15H129.217V0.719999H131.917L138.477 12.2H138.557C138.543 12 138.53 11.7533 138.517 11.46C138.503 11.1533 138.49 10.8267 138.477 10.48C138.463 10.1333 138.45 9.78 138.437 9.42C138.423 9.06 138.417 8.72 138.417 8.4V0.719999H140.437V15ZM166.303 15L164.963 10.88H159.863L158.523 15H156.203L161.223 0.66H163.623L168.623 15H166.303ZM163.063 4.98C163.023 4.82 162.956 4.6 162.863 4.32C162.783 4.02667 162.703 3.72667 162.623 3.42C162.543 3.1 162.47 2.83333 162.403 2.62C162.35 2.91333 162.283 3.20667 162.203 3.5C162.123 3.79333 162.05 4.06667 161.983 4.32C161.916 4.57333 161.856 4.79333 161.803 4.98L160.483 9H164.383L163.063 4.98ZM4.35586 30.72C6.10253 30.72 7.37586 31.1 8.17586 31.86C8.98919 32.6067 9.39586 33.6533 9.39586 35C9.39586 35.6 9.30253 36.1733 9.11586 36.72C8.94253 37.2667 8.64919 37.76 8.23586 38.2C7.83586 38.6267 7.29586 38.9667 6.61586 39.22C5.93586 39.46 5.10253 39.58 4.11586 39.58H2.71586V45H0.495859V30.72H4.35586ZM4.23586 32.54H2.71586V37.76H3.87586C4.59586 37.76 5.19586 37.6733 5.67586 37.5C6.15586 37.3133 6.51586 37.0267 6.75586 36.64C7.00919 36.24 7.13586 35.72 7.13586 35.08C7.13586 34.2267 6.90253 33.5933 6.43586 33.18C5.96919 32.7533 5.23586 32.54 4.23586 32.54ZM37.9788 37.84C37.9788 38.9467 37.8455 39.9533 37.5788 40.86C37.3255 41.7533 36.9322 42.5267 36.3988 43.18C35.8788 43.8333 35.2255 44.3333 34.4388 44.68C33.6522 45.0267 32.7388 45.2 31.6988 45.2C30.6322 45.2 29.6988 45.0267 28.8988 44.68C28.1122 44.32 27.4588 43.82 26.9388 43.18C26.4188 42.5267 26.0322 41.7467 25.7788 40.84C25.5255 39.9333 25.3988 38.9267 25.3988 37.82C25.3988 36.3533 25.6255 35.0733 26.0788 33.98C26.5455 32.8867 27.2455 32.0333 28.1788 31.42C29.1122 30.8067 30.2922 30.5 31.7188 30.5C33.1055 30.5 34.2588 30.8067 35.1788 31.42C36.1122 32.02 36.8122 32.8733 37.2788 33.98C37.7455 35.0733 37.9788 36.36 37.9788 37.84ZM27.7388 37.84C27.7388 38.9867 27.8722 39.9733 28.1388 40.8C28.4188 41.6133 28.8522 42.2467 29.4388 42.7C30.0388 43.14 30.7922 43.36 31.6988 43.36C32.6188 43.36 33.3655 43.14 33.9388 42.7C34.5255 42.2467 34.9522 41.6133 35.2188 40.8C35.4988 39.9733 35.6388 38.9867 35.6388 37.84C35.6388 36.12 35.3255 34.78 34.6988 33.82C34.0722 32.8467 33.0788 32.36 31.7188 32.36C30.7988 32.36 30.0388 32.58 29.4388 33.02C28.8522 33.46 28.4188 34.0867 28.1388 34.9C27.8722 35.7133 27.7388 36.6933 27.7388 37.84ZM58.684 30.72C59.8307 30.72 60.7773 30.8733 61.524 31.18C62.2707 31.4867 62.824 31.9467 63.184 32.56C63.5573 33.16 63.744 33.92 63.744 34.84C63.744 35.5733 63.6173 36.1933 63.364 36.7C63.124 37.1933 62.804 37.6 62.404 37.92C62.0173 38.2267 61.5973 38.4733 61.144 38.66L64.924 45H62.404L59.224 39.22H57.044V45H54.824V30.72H58.684ZM58.584 32.56H57.044V37.42H58.624C59.2773 37.42 59.8107 37.3267 60.224 37.14C60.6507 36.9533 60.964 36.6733 61.164 36.3C61.3773 35.9267 61.484 35.4667 61.484 34.92C61.484 34.3467 61.3773 33.8933 61.164 33.56C60.964 33.2133 60.644 32.96 60.204 32.8C59.7773 32.64 59.2373 32.56 58.584 32.56ZM85.4962 45H83.2962V32.58H79.3362V30.72H89.4362V32.58H85.4962V45ZM107.661 45H105.461V30.72H113.081V32.56H107.661V37.22H112.741V39.06H107.661V45ZM141.342 37.84C141.342 38.9467 141.209 39.9533 140.942 40.86C140.689 41.7533 140.295 42.5267 139.762 43.18C139.242 43.8333 138.589 44.3333 137.802 44.68C137.015 45.0267 136.102 45.2 135.062 45.2C133.995 45.2 133.062 45.0267 132.262 44.68C131.475 44.32 130.822 43.82 130.302 43.18C129.782 42.5267 129.395 41.7467 129.142 40.84C128.889 39.9333 128.762 38.9267 128.762 37.82C128.762 36.3533 128.989 35.0733 129.442 33.98C129.909 32.8867 130.609 32.0333 131.542 31.42C132.475 30.8067 133.655 30.5 135.082 30.5C136.469 30.5 137.622 30.8067 138.542 31.42C139.475 32.02 140.175 32.8733 140.642 33.98C141.109 35.0733 141.342 36.36 141.342 37.84ZM131.102 37.84C131.102 38.9867 131.235 39.9733 131.502 40.8C131.782 41.6133 132.215 42.2467 132.802 42.7C133.402 43.14 134.155 43.36 135.062 43.36C135.982 43.36 136.729 43.14 137.302 42.7C137.889 42.2467 138.315 41.6133 138.582 40.8C138.862 39.9733 139.002 38.9867 139.002 37.84C139.002 36.12 138.689 34.78 138.062 33.82C137.435 32.8467 136.442 32.36 135.082 32.36C134.162 32.36 133.402 32.58 132.802 33.02C132.215 33.46 131.782 34.0867 131.502 34.9C131.235 35.7133 131.102 36.6933 131.102 37.84ZM158.187 45V30.72H160.407V43.14H166.087V45H158.187ZM186.743 45H181.323V43.76L182.923 43.26V32.48L181.323 31.96V30.72H186.743V31.96L185.143 32.48V43.26L186.743 43.76V45ZM215.139 37.84C215.139 38.9467 215.006 39.9533 214.739 40.86C214.486 41.7533 214.092 42.5267 213.559 43.18C213.039 43.8333 212.386 44.3333 211.599 44.68C210.812 45.0267 209.899 45.2 208.859 45.2C207.792 45.2 206.859 45.0267 206.059 44.68C205.272 44.32 204.619 43.82 204.099 43.18C203.579 42.5267 203.192 41.7467 202.939 40.84C202.686 39.9333 202.559 38.9267 202.559 37.82C202.559 36.3533 202.786 35.0733 203.239 33.98C203.706 32.8867 204.406 32.0333 205.339 31.42C206.272 30.8067 207.452 30.5 208.879 30.5C210.266 30.5 211.419 30.8067 212.339 31.42C213.272 32.02 213.972 32.8733 214.439 33.98C214.906 35.0733 215.139 36.36 215.139 37.84ZM204.899 37.84C204.899 38.9867 205.032 39.9733 205.299 40.8C205.579 41.6133 206.012 42.2467 206.599 42.7C207.199 43.14 207.952 43.36 208.859 43.36C209.779 43.36 210.526 43.14 211.099 42.7C211.686 42.2467 212.112 41.6133 212.379 40.8C212.659 39.9733 212.799 38.9867 212.799 37.84C212.799 36.12 212.486 34.78 211.859 33.82C211.232 32.8467 210.239 32.36 208.879 32.36C207.959 32.36 207.199 32.58 206.599 33.02C206.012 33.46 205.579 34.0867 205.299 34.9C205.032 35.7133 204.899 36.6933 204.899 37.84Z" fill="black"/>
</svg>
