<svg width="211" height="53" viewBox="0 0 211 53" fill="none" xmlns="http://www.w3.org/2000/svg">
<path d="M54.4168 8.16C51.7901 8.48 49.9301 8.76 48.8368 9L47.7568 13.28C47.6635 13.6667 47.5235 13.9267 47.3368 14.06C47.1635 14.1933 46.8101 14.26 46.2768 14.26C45.8635 14.26 45.5568 14.1867 45.3568 14.04C45.1701 13.9067 45.0768 13.6733 45.0768 13.34C45.0768 13.1933 45.0968 13.0533 45.1368 12.92L47.8768 2.1C48.0235 1.51333 48.1768 1.12667 48.3368 0.939999C48.5101 0.739999 48.8168 0.639999 49.2568 0.639999C49.6168 0.639999 49.9435 0.679999 50.2368 0.759999C50.5435 0.839999 50.7035 0.959999 50.7168 1.12C50.7168 1.14667 50.6301 1.50667 50.4568 2.2C50.1901 3.22667 49.8101 4.78667 49.3168 6.88C51.2901 6.48 53.1635 6.20667 54.9368 6.06L55.8568 2.34C55.9901 1.80667 56.1701 1.41333 56.3968 1.16C56.6368 0.893332 56.9568 0.719999 57.3568 0.639999C57.8501 0.733333 58.1701 0.813333 58.3168 0.88C58.4768 0.933333 58.5835 1.02 58.6368 1.14C58.4635 1.63333 58.3301 2.09333 58.2368 2.52C58.1568 2.93333 58.1101 3.18 58.0968 3.26C57.9235 4.19333 57.7168 5.14667 57.4768 6.12C57.9968 6.34667 58.2568 6.65333 58.2568 7.04C58.2568 7.42667 57.8435 7.75333 57.0168 8.02C56.8701 8.55333 56.5968 9.71333 56.1968 11.5C56.1035 11.9933 55.9701 12.6067 55.7968 13.34C55.6101 14.0733 55.3168 14.44 54.9168 14.44C53.6901 14.44 53.0768 14.1533 53.0768 13.58C53.0768 13.46 53.5235 11.6533 54.4168 8.16ZM82.757 1.14C83.2636 1.14 83.6836 1.21333 84.017 1.36C84.3503 1.50667 84.5236 1.67333 84.537 1.86C84.0703 2.54 83.3703 3.42 82.437 4.5C81.5036 5.58 80.5903 6.58667 79.697 7.52C78.817 8.44 78.2836 8.96667 78.097 9.1C78.017 9.15333 77.897 9.21333 77.737 9.28C77.6703 9.77333 77.4503 10.78 77.077 12.3L76.857 13.18C76.7636 13.5667 76.6236 13.8267 76.437 13.96C76.2636 14.0933 75.9103 14.16 75.377 14.16C74.977 14.16 74.6903 14.0933 74.517 13.96C74.3436 13.8267 74.257 13.5867 74.257 13.24C74.257 13.0933 74.277 12.9533 74.317 12.82L75.117 9.62L75.217 9.22C74.857 8.95333 74.657 8.61333 74.617 8.2C74.5636 7.44 74.5303 6.84667 74.517 6.42C74.3836 4.20667 74.2703 2.58 74.177 1.54C74.1503 1.34 74.257 1.17333 74.497 1.04C74.737 0.893333 75.0703 0.819999 75.497 0.819999C75.897 0.819999 76.1636 0.879999 76.297 0.999999C76.4436 1.12 76.517 1.33333 76.517 1.64C76.517 2.32 76.5436 3.34 76.597 4.7C76.6503 6.06 76.7436 7.17333 76.877 8.04C78.077 6.36 79.257 4.79333 80.417 3.34C81.5903 1.87333 82.3703 1.14 82.757 1.14ZM100.271 2.18C100.417 1.59333 100.571 1.20667 100.731 1.02C100.904 0.819999 101.211 0.719999 101.651 0.719999C102.011 0.719999 102.317 0.759999 102.571 0.839999C102.837 0.92 102.977 1.04 102.991 1.2C103.057 1.24 103.091 1.34667 103.091 1.52C103.091 1.8 103.017 2.22667 102.871 2.8C102.724 3.37333 102.511 4.12 102.231 5.04C101.911 6.14667 101.651 7.08667 101.451 7.86C101.251 8.63333 101.124 9.29333 101.071 9.84L101.051 10.12C101.051 10.6533 101.184 11.0933 101.451 11.44C101.717 11.7733 102.044 12.02 102.431 12.18C102.817 12.3267 103.197 12.4 103.571 12.4C104.424 12.4 105.097 12.2067 105.591 11.82C106.084 11.42 106.457 10.88 106.711 10.2C106.977 9.50667 107.224 8.56667 107.451 7.38C107.571 6.78 107.757 5.91333 108.011 4.78C108.264 3.64667 108.431 2.96 108.511 2.72C108.631 2.37333 108.704 2.10667 108.731 1.92C108.811 1.61333 108.891 1.38 108.971 1.22C109.064 1.06 109.204 0.92 109.391 0.799999C109.444 0.786666 109.517 0.773333 109.611 0.759999C109.704 0.733332 109.777 0.719999 109.831 0.719999C110.284 0.719999 110.657 0.759999 110.951 0.839999C111.257 0.92 111.437 1.02 111.491 1.14C111.291 1.92667 111.011 3.1 110.651 4.66C110.304 6.20667 110.051 7.43333 109.891 8.34C109.157 12.3933 106.957 14.42 103.291 14.42C102.357 14.42 101.524 14.2333 100.791 13.86C100.057 13.4867 99.4774 12.9733 99.0507 12.32C98.6374 11.6533 98.4307 10.9 98.4307 10.06C98.4307 9.63333 98.4907 9.19333 98.6107 8.74L100.271 2.18ZM130.133 4.44C129.72 5.72 129.406 7.16 129.193 8.76C128.993 10.3467 128.88 11.8533 128.853 13.28C128.84 13.6533 128.726 13.9067 128.513 14.04C128.3 14.1867 127.913 14.26 127.353 14.26C126.94 14.26 126.633 14.1867 126.433 14.04C126.233 13.9067 126.133 13.6733 126.133 13.34C126.133 12.5133 126.266 11.0667 126.533 9C126.8 6.92 127.226 5.00667 127.813 3.26C128.413 1.51333 129.173 0.639999 130.093 0.639999C130.453 0.639999 130.773 0.679999 131.053 0.759999C131.333 0.839999 131.486 0.959999 131.513 1.12C131.5 1.12 132.446 4.04 134.353 9.88L136.173 1.22C136.173 0.793333 136.466 0.58 137.053 0.58C137.386 0.58 137.713 0.753333 138.033 1.1C138.366 1.44667 138.6 1.74 138.733 1.98C138.506 2.9 138.226 4.16 137.893 5.76C137.56 7.36 137.34 8.4 137.233 8.88C136.806 10.96 136.493 12.4467 136.293 13.34C136.106 14.0733 135.82 14.44 135.433 14.44C134.54 14.44 133.92 14.24 133.573 13.84L130.133 4.44ZM156.515 8.34C157.102 7.34 157.722 6.34667 158.375 5.36C159.042 4.37333 159.869 3.2 160.855 1.84C161.095 1.50667 161.409 1.23333 161.795 1.02C162.182 0.806666 162.582 0.7 162.995 0.7C163.622 0.7 164.035 0.779999 164.235 0.939999C164.435 1.1 164.535 1.35333 164.535 1.7L164.515 3.54C164.489 4.47333 164.475 5.21333 164.475 5.76C164.475 7.45333 164.535 8.93333 164.655 10.2C164.735 11.28 164.869 12.2467 165.055 13.1C165.042 13.42 164.929 13.7133 164.715 13.98C164.502 14.2333 164.235 14.36 163.915 14.36C163.302 14.36 162.882 14.2067 162.655 13.9C162.429 13.5933 162.282 13.0733 162.215 12.34C162.189 11.8867 162.175 10.96 162.175 9.56C160.455 9.84 159.089 10.1067 158.075 10.36C157.862 10.7733 157.695 11.1 157.575 11.34C157.309 11.8867 157.082 12.32 156.895 12.64C156.722 12.96 156.522 13.24 156.295 13.48C156.029 13.7733 155.815 13.9733 155.655 14.08C155.495 14.2 155.295 14.26 155.055 14.26C154.655 14.26 154.295 14.1733 153.975 14C153.655 13.8133 153.489 13.6267 153.475 13.44C153.489 13.44 153.602 13.2333 153.815 12.82C153.909 12.66 154.255 12.0467 154.855 10.98C155.455 9.9 156.009 9.02 156.515 8.34ZM159.435 8.06C159.702 7.99333 160.062 7.93333 160.515 7.88L162.115 7.64C162.089 6.70667 162.075 6.03333 162.075 5.62C162.075 4.74 162.102 4.08 162.155 3.64C161.862 4.02667 161.462 4.64 160.955 5.48C160.462 6.30667 159.955 7.16667 159.435 8.06ZM0.792969 41C0.792969 40.8133 0.846302 40.6667 0.952969 40.56C1.07297 40.44 1.23297 40.3333 1.43297 40.24C1.49964 40.2 1.73964 40.08 2.15297 39.88C2.57964 39.68 2.9863 39.5267 3.37297 39.42C3.49297 39.1533 3.67297 38.9333 3.91297 38.76C4.1663 38.5867 4.4863 38.5 4.87297 38.5C5.09964 38.5 5.2863 38.5467 5.43297 38.64C5.57964 38.72 5.67964 38.8267 5.73297 38.96C6.2263 38.8 6.81964 38.72 7.51297 38.72C8.37964 38.72 9.1263 38.9067 9.75297 39.28C10.393 39.64 10.873 40.14 11.193 40.78C11.5263 41.42 11.693 42.14 11.693 42.94C11.693 43.1 11.673 43.32 11.633 43.6C11.0863 46.72 8.75297 48.28 4.63297 48.28C4.25964 48.28 3.9863 48.2733 3.81297 48.26L3.55297 49.22C3.27297 50.2467 3.13297 50.7733 3.13297 50.8C3.0263 51.2667 2.85964 51.6267 2.63297 51.88C2.41964 52.1333 2.0663 52.26 1.57297 52.26C1.15964 52.26 0.852969 52.1867 0.652969 52.04C0.466302 51.9067 0.372969 51.6733 0.372969 51.34C0.372969 51.1933 0.392969 51.0533 0.432969 50.92L2.85297 41.58C2.15964 41.78 1.63297 42.0533 1.27297 42.4C1.1263 42.24 1.0063 42.0333 0.912969 41.78C0.832969 41.5133 0.792969 41.2533 0.792969 41ZM4.23297 46.4C4.39297 46.4133 4.61964 46.42 4.91297 46.42C6.17964 46.42 7.17964 46.18 7.91297 45.7C8.65964 45.22 9.13964 44.48 9.35297 43.48C9.39297 43.2533 9.41297 43.0867 9.41297 42.98C9.41297 42.2333 9.2063 41.68 8.79297 41.32C8.37964 40.9467 7.79964 40.76 7.05297 40.76C6.65297 40.76 6.13964 40.8533 5.51297 41.04C4.99297 43.1067 4.5663 44.8933 4.23297 46.4ZM31.0614 52.42C29.4747 52.42 28.2881 51.9067 27.5014 50.88C26.7147 49.8533 26.3214 48.46 26.3214 46.7C26.3214 45.2467 26.6347 43.9 27.2614 42.66C27.8881 41.42 28.7614 40.4333 29.8814 39.7C31.0014 38.9667 32.2614 38.6 33.6614 38.6C35.0214 38.6 36.1081 39.0667 36.9214 40C37.7481 40.92 38.1614 42.3 38.1614 44.14C38.1614 45.4467 37.8547 46.7467 37.2414 48.04C36.6414 49.32 35.8014 50.3733 34.7214 51.2C33.6414 52.0133 32.4214 52.42 31.0614 52.42ZM31.3414 50.62C31.9947 50.62 32.6347 50.2533 33.2614 49.52C33.8881 48.7867 34.3947 47.8467 34.7814 46.7C35.1814 45.5533 35.3814 44.3867 35.3814 43.2C35.3814 42.2933 35.2281 41.64 34.9214 41.24C34.6281 40.8267 34.1014 40.62 33.3414 40.62C32.5014 40.62 31.7547 40.9867 31.1014 41.72C30.4481 42.4533 29.9414 43.3667 29.5814 44.46C29.2214 45.5533 29.0414 46.6133 29.0414 47.64C29.0414 48.24 29.1481 48.7667 29.3614 49.22C29.5881 49.6733 29.8747 50.02 30.2214 50.26C30.5814 50.5 30.9547 50.62 31.3414 50.62ZM64.4102 42.16C64.4102 43.3467 64.0302 44.3 63.2702 45.02C62.5235 45.74 61.5635 46.26 60.3902 46.58L61.5702 48.22C62.5835 49.6067 63.2302 50.5133 63.5102 50.94C63.7902 51.3533 63.9302 51.6467 63.9302 51.82C63.9302 51.9667 63.8168 52.08 63.5902 52.16C63.5102 52.1867 63.3768 52.2333 63.1902 52.3C63.0168 52.38 62.8568 52.4333 62.7102 52.46C62.5635 52.4867 62.3968 52.5 62.2102 52.5C61.9302 52.5 61.7168 52.4667 61.5702 52.4L57.9702 46.94H57.6702C57.2968 46.94 57.0235 46.9333 56.8502 46.92C56.4502 48.4 56.1168 49.6933 55.8502 50.8C55.7435 51.2667 55.5768 51.6267 55.3502 51.88C55.1368 52.1333 54.7835 52.26 54.2902 52.26C53.8768 52.26 53.5702 52.1867 53.3702 52.04C53.1835 51.9067 53.0902 51.6733 53.0902 51.34C53.0902 51.1933 53.1102 51.0533 53.1502 50.92L55.5702 41.58C54.8768 41.78 54.3502 42.0533 53.9902 42.4C53.8435 42.24 53.7235 42.0333 53.6302 41.78C53.5502 41.5133 53.5102 41.2533 53.5102 41C53.5102 40.5867 53.9035 40.2067 54.6902 39.86C55.4768 39.5133 56.4102 39.24 57.4902 39.04C58.5702 38.8267 59.4835 38.72 60.2302 38.72C61.0835 38.72 61.8235 38.8933 62.4502 39.24C63.0902 39.5733 63.5768 40.0067 63.9102 40.54C64.2435 41.0733 64.4102 41.6133 64.4102 42.16ZM58.2302 41.04C57.8435 42.5867 57.5235 43.9267 57.2702 45.06C57.4302 45.0733 57.6568 45.08 57.9502 45.08C58.5902 45.08 59.2302 44.9867 59.8702 44.8C60.5102 44.6 61.0435 44.3067 61.4702 43.92C61.9102 43.5333 62.1302 43.0533 62.1302 42.48C62.1302 41.96 61.9168 41.5467 61.4902 41.24C61.0635 40.92 60.4902 40.76 59.7702 40.76C59.3702 40.76 58.8568 40.8533 58.2302 41.04ZM83.4986 51.02C83.4053 51.4867 83.2519 51.8467 83.0386 52.1C82.8253 52.3533 82.4719 52.48 81.9786 52.48C81.5653 52.48 81.2586 52.4067 81.0586 52.26C80.8719 52.1267 80.7719 51.8933 80.7586 51.56C80.7586 51.4133 80.7786 51.2733 80.8186 51.14L83.1386 41.24C82.9786 41.2667 82.5919 41.3067 81.9786 41.36C81.0586 41.44 80.5186 41.5 80.3586 41.54C80.0919 41.4467 79.8853 41.3 79.7386 41.1C79.6053 40.9 79.5319 40.6733 79.5186 40.42C79.5186 40.2067 79.5919 40.0067 79.7386 39.82C79.8986 39.62 80.0853 39.4733 80.2986 39.38C81.3786 39.1667 83.6586 38.98 87.1386 38.82C88.1119 38.78 88.7719 38.74 89.1186 38.7C89.3319 38.7933 89.5186 38.94 89.6786 39.14C89.8386 39.34 89.9186 39.5467 89.9186 39.76C89.9186 40 89.7986 40.2333 89.5586 40.46C89.3319 40.6733 89.0653 40.8267 88.7586 40.92L85.7186 41.06L83.4986 51.02ZM113.84 38.36C114.32 38.6133 114.56 38.9333 114.56 39.32C114.56 39.56 114.434 39.7867 114.18 40C113.927 40.2 113.64 40.3467 113.32 40.44L113.08 40.46C111.36 40.5533 109.787 40.68 108.36 40.84L107.24 45.32C108.227 45.16 109.1 45.0467 109.86 44.98C110.62 44.9133 111.074 44.8733 111.22 44.86L112 44.8C112.52 45.0267 112.78 45.3333 112.78 45.72C112.78 45.96 112.66 46.1933 112.42 46.42C112.18 46.6467 111.907 46.8067 111.6 46.9L111.3 46.94C110.7 47.0067 110.14 47.06 109.62 47.1C108.26 47.22 107.294 47.3267 106.72 47.42L105.76 51.28C105.694 51.56 105.62 51.7667 105.54 51.9C105.474 52.02 105.347 52.1067 105.16 52.16C104.987 52.2267 104.72 52.26 104.36 52.26C103.947 52.26 103.64 52.1867 103.44 52.04C103.254 51.9067 103.16 51.6733 103.16 51.34C103.16 51.1933 103.18 51.0533 103.22 50.92L105.96 40.1C106.107 39.5133 106.26 39.1267 106.42 38.94C106.594 38.74 106.9 38.64 107.34 38.64C107.807 38.64 108.187 38.7 108.48 38.82C110.44 38.5667 112.227 38.4133 113.84 38.36ZM139.979 43.06C139.979 44.78 139.726 46.3533 139.219 47.78C138.712 49.1933 137.966 50.32 136.979 51.16C135.992 52 134.812 52.42 133.439 52.42C132.372 52.42 131.446 52.18 130.659 51.7C129.886 51.22 129.292 50.5467 128.879 49.68C128.466 48.8133 128.259 47.82 128.259 46.7C128.259 45.2467 128.572 43.9 129.199 42.66C129.826 41.42 130.699 40.4333 131.819 39.7C132.939 38.9667 134.199 38.6 135.599 38.6C136.386 38.6 137.132 38.6667 137.839 38.8C138.559 38.9333 138.919 39.1667 138.919 39.5C138.919 39.6333 138.866 39.8267 138.759 40.08C138.666 40.32 138.559 40.48 138.439 40.56C138.746 40.5867 139.012 40.7533 139.239 41.06C139.479 41.3533 139.659 41.6933 139.779 42.08C139.912 42.4667 139.979 42.7933 139.979 43.06ZM137.319 43.2C137.319 42.8933 137.252 42.6467 137.119 42.46C136.999 42.26 136.832 42.06 136.619 41.86C136.592 41.8333 136.539 41.78 136.459 41.7C136.379 41.62 136.339 41.5467 136.339 41.48C136.339 41.4267 136.352 41.3533 136.379 41.26C136.419 41.1667 136.439 41.1 136.439 41.06C136.439 40.9933 136.312 40.9267 136.059 40.86C135.819 40.78 135.552 40.74 135.259 40.74C134.419 40.74 133.672 41.1 133.019 41.82C132.366 42.5267 131.859 43.42 131.499 44.5C131.152 45.5667 130.979 46.6133 130.979 47.64C130.979 48.24 131.086 48.7667 131.299 49.22C131.526 49.6733 131.812 50.02 132.159 50.26C132.519 50.5 132.892 50.62 133.279 50.62C133.932 50.62 134.572 50.2533 135.199 49.52C135.826 48.7867 136.332 47.8467 136.719 46.7C137.119 45.5533 137.319 44.3867 137.319 43.2ZM163.188 49.04C163.401 49.1333 163.574 49.2867 163.708 49.5C163.854 49.7 163.928 49.9067 163.928 50.12C163.928 50.36 163.808 50.5933 163.568 50.82C163.328 51.0467 163.054 51.2067 162.748 51.3C162.041 51.38 161.181 51.5 160.168 51.66C159.154 51.8067 158.268 51.96 157.508 52.12C157.388 52.2 157.128 52.24 156.728 52.24C156.354 52.24 156.021 52.0667 155.728 51.72C155.448 51.3733 155.308 51.0133 155.308 50.64C155.308 50.4933 155.328 50.3533 155.368 50.22L157.888 40.36C158.034 39.7733 158.188 39.3867 158.348 39.2C158.521 39 158.828 38.9 159.268 38.9C159.628 38.9 159.934 38.94 160.188 39.02C160.454 39.1 160.594 39.22 160.608 39.38L158.088 49.84C160.328 49.4 162.028 49.1333 163.188 49.04ZM181.346 39.22C181.399 38.9933 181.546 38.84 181.786 38.76C182.039 38.68 182.346 38.64 182.706 38.64C183.133 38.64 183.419 38.6867 183.566 38.78C183.726 38.86 183.833 38.98 183.886 39.14C183.766 39.5933 183.413 41.1867 182.826 43.92C182.239 46.64 181.739 48.9933 181.326 50.98C181.139 51.7133 180.853 52.08 180.466 52.08C179.226 52.08 178.606 51.7933 178.606 51.22C178.606 51.1667 178.753 50.52 179.046 49.28C179.899 45.6667 180.666 42.3133 181.346 39.22ZM203.358 52.42C201.772 52.42 200.585 51.9067 199.798 50.88C199.012 49.8533 198.618 48.46 198.618 46.7C198.618 45.2467 198.932 43.9 199.558 42.66C200.185 41.42 201.058 40.4333 202.178 39.7C203.298 38.9667 204.558 38.6 205.958 38.6C207.318 38.6 208.405 39.0667 209.218 40C210.045 40.92 210.458 42.3 210.458 44.14C210.458 45.4467 210.152 46.7467 209.538 48.04C208.938 49.32 208.098 50.3733 207.018 51.2C205.938 52.0133 204.718 52.42 203.358 52.42ZM203.638 50.62C204.292 50.62 204.932 50.2533 205.558 49.52C206.185 48.7867 206.692 47.8467 207.078 46.7C207.478 45.5533 207.678 44.3867 207.678 43.2C207.678 42.2933 207.525 41.64 207.218 41.24C206.925 40.8267 206.398 40.62 205.638 40.62C204.798 40.62 204.052 40.9867 203.398 41.72C202.745 42.4533 202.238 43.3667 201.878 44.46C201.518 45.5533 201.338 46.6133 201.338 47.64C201.338 48.24 201.445 48.7667 201.658 49.22C201.885 49.6733 202.172 50.02 202.518 50.26C202.878 50.5 203.252 50.62 203.638 50.62Z" fill="black"/>
</svg>
