<svg width="80" height="80" viewBox="0 0 80 80" fill="none" xmlns="http://www.w3.org/2000/svg">
<circle cx="40" cy="40" r="36.5" stroke="#DDDDDD" stroke-width="7"/>
<mask id="path-2-inside-1_144_619" fill="white">
<path d="M40 0C33.5387 -7.70499e-08 27.1736 1.56522 21.4492 4.56176C15.7248 7.5583 10.8115 11.897 7.12966 17.2066C3.4478 22.5162 1.10697 28.6387 0.307428 35.0503C-0.492109 41.4619 0.273446 47.9718 2.5386 54.023C4.80375 60.0742 8.50108 65.4866 13.3143 69.7972C18.1275 74.1078 23.9132 77.1882 30.1766 78.775C36.44 80.3618 42.9946 80.4077 49.2796 78.9087C55.5646 77.4098 61.3929 74.4106 66.266 70.1678L61.6765 64.8965C57.6549 68.3979 52.8449 70.8731 47.6581 72.1101C42.4713 73.3471 37.0621 73.3093 31.8931 71.9997C26.7241 70.6902 21.9493 68.148 17.9771 64.5906C14.005 61.0332 10.9537 56.5665 9.08434 51.5727C7.21498 46.5788 6.5832 41.2064 7.24303 35.9152C7.90286 30.6239 9.83467 25.5712 12.8732 21.1893C15.9117 16.8075 19.9665 13.2269 24.6907 10.754C29.4148 8.28105 34.6677 6.98932 40 6.98932L40 0Z"/>
</mask>
<path d="M40 0C33.5387 -7.70499e-08 27.1736 1.56522 21.4492 4.56176C15.7248 7.5583 10.8115 11.897 7.12966 17.2066C3.4478 22.5162 1.10697 28.6387 0.307428 35.0503C-0.492109 41.4619 0.273446 47.9718 2.5386 54.023C4.80375 60.0742 8.50108 65.4866 13.3143 69.7972C18.1275 74.1078 23.9132 77.1882 30.1766 78.775C36.44 80.3618 42.9946 80.4077 49.2796 78.9087C55.5646 77.4098 61.3929 74.4106 66.266 70.1678L61.6765 64.8965C57.6549 68.3979 52.8449 70.8731 47.6581 72.1101C42.4713 73.3471 37.0621 73.3093 31.8931 71.9997C26.7241 70.6902 21.9493 68.148 17.9771 64.5906C14.005 61.0332 10.9537 56.5665 9.08434 51.5727C7.21498 46.5788 6.5832 41.2064 7.24303 35.9152C7.90286 30.6239 9.83467 25.5712 12.8732 21.1893C15.9117 16.8075 19.9665 13.2269 24.6907 10.754C29.4148 8.28105 34.6677 6.98932 40 6.98932L40 0Z" stroke="#CC6699" stroke-width="8" mask="url(#path-2-inside-1_144_619)"/>
<g clip-path="url(#clip0_144_619)">
<path d="M40 16C49.3882 16 57 23.6118 57 33C57 42.3882 49.3882 50 40 50C30.6118 50 23 42.3882 23 33C23 23.6118 30.6118 16 40 16ZM36.6212 38.6638C36.8692 39.5776 36.8422 40.4318 36.5872 41.2025L36.4952 41.4575C36.4612 41.5439 36.4215 41.6275 36.3847 41.7068C36.1863 42.1177 35.9228 42.5002 35.5984 42.8543C34.6096 43.9296 33.2297 44.3376 32.6376 43.9947C32.0001 43.6236 32.3174 42.1035 33.4649 40.8922C34.6988 39.5917 36.4682 38.7545 36.4682 38.7545V38.7502L36.6212 38.6638ZM50.6618 23.2774C49.894 20.2557 44.8861 19.2626 40.1473 20.947C37.3296 21.9486 34.2767 23.5225 32.0822 25.5752C29.4713 28.0133 29.0562 30.1383 29.2277 31.0266C29.8326 34.1588 34.1251 36.2073 35.8902 37.7274V37.7359C35.3703 37.9909 31.5609 39.902 30.6684 41.8797C29.7122 43.9622 30.8172 45.4511 31.5397 45.6409C33.7709 46.2586 36.0659 45.1309 37.2984 43.3048C38.4884 41.5184 38.3836 39.2234 37.8707 38.0972C38.5734 37.9059 39.4007 37.8209 40.4632 37.9498C43.4397 38.2898 44.0347 40.1598 43.9058 40.9248C43.7782 41.6884 43.1648 42.1347 42.9509 42.2622C42.7384 42.3911 42.6747 42.4322 42.6945 42.5186C42.7157 42.6461 42.8234 42.6461 42.992 42.6248C43.2257 42.5823 44.5447 41.9873 44.6084 40.5409C44.6722 38.7134 42.9282 36.6748 39.8272 36.7159C38.5522 36.7386 37.7432 36.8448 37.1709 37.0786C37.1284 37.0148 37.0845 36.9723 37.0222 36.9298C35.1097 34.8686 31.5609 33.4236 31.7097 30.6823C31.7522 29.6836 32.1134 27.05 38.5097 23.8625C43.7584 21.2473 47.9461 21.9713 48.6686 23.565C49.707 25.8373 46.4359 30.0675 40.9747 30.6823C38.8922 30.9161 37.8084 30.11 37.5307 29.8111C37.2347 29.4923 37.1922 29.4711 37.0859 29.5363C36.9159 29.6213 37.0222 29.8975 37.0859 30.0675C37.2559 30.4925 37.9147 31.2362 39.0636 31.6187C40.0609 31.9375 42.5061 32.1273 45.4386 30.9812C48.7309 29.7077 51.3022 26.1575 50.5584 23.1825L50.6618 23.2774Z" fill="black"/>
</g>
<path d="M31.5174 63.5681C29.5434 63.5681 28.0734 61.8741 28.0734 58.4861C28.0734 54.4681 29.8794 52.9281 31.8674 52.9281C32.9314 52.9281 33.7154 53.3761 34.2754 53.9781L33.5614 54.7621C33.1694 54.2861 32.5394 53.9921 31.9234 53.9921C30.4814 53.9921 29.2774 55.1261 29.2774 58.4861C29.2774 61.1181 30.0754 62.5601 31.5174 62.5601C32.4974 62.5601 33.2534 61.6221 33.2534 60.2361C33.2534 58.8361 32.6374 57.9541 31.4054 57.9541C30.7474 57.9541 29.9214 58.3461 29.2354 59.3681L29.1934 58.3461C29.8234 57.5201 30.7754 57.0161 31.6014 57.0161C33.3374 57.0161 34.4574 58.0801 34.4574 60.2361C34.4574 62.2241 33.0994 63.5681 31.5174 63.5681ZM38.9611 63.5681C37.0011 63.5681 35.7551 61.7901 35.7551 58.2061C35.7551 54.6501 37.0011 52.9281 38.9611 52.9281C40.8931 52.9281 42.1391 54.6501 42.1391 58.2061C42.1391 61.7901 40.8931 63.5681 38.9611 63.5681ZM38.9611 62.5321C40.1231 62.5321 40.9071 61.2301 40.9071 58.2061C40.9071 55.2241 40.1231 53.9501 38.9611 53.9501C37.7851 53.9501 36.9871 55.2241 36.9871 58.2061C36.9871 61.2301 37.7851 62.5321 38.9611 62.5321ZM45.7047 59.3961C44.2907 59.3961 43.3667 58.2201 43.3667 56.1481C43.3667 54.0901 44.2907 52.9281 45.7047 52.9281C47.1187 52.9281 48.0427 54.0901 48.0427 56.1481C48.0427 58.2201 47.1187 59.3961 45.7047 59.3961ZM45.7047 58.6121C46.5167 58.6121 47.0627 57.7721 47.0627 56.1481C47.0627 54.5101 46.5167 53.7121 45.7047 53.7121C44.8927 53.7121 44.3327 54.5101 44.3327 56.1481C44.3327 57.7721 44.8927 58.6121 45.7047 58.6121ZM45.9987 63.5681L51.6547 52.9281H52.5227L46.8667 63.5681H45.9987ZM52.8587 63.5681C51.4447 63.5681 50.5207 62.3921 50.5207 60.3061C50.5207 58.2621 51.4447 57.0861 52.8587 57.0861C54.2447 57.0861 55.1827 58.2621 55.1827 60.3061C55.1827 62.3921 54.2447 63.5681 52.8587 63.5681ZM52.8587 62.7841C53.6567 62.7841 54.2167 61.9441 54.2167 60.3061C54.2167 58.6681 53.6567 57.8841 52.8587 57.8841C52.0467 57.8841 51.4867 58.6681 51.4867 60.3061C51.4867 61.9441 52.0467 62.7841 52.8587 62.7841Z" fill="black"/>
<defs>
<clipPath id="clip0_144_619">
<rect width="34" height="34" fill="white" transform="translate(23 16)"/>
</clipPath>
</defs>
</svg>
