<svg width="80" height="80" viewBox="0 0 80 80" fill="none" xmlns="http://www.w3.org/2000/svg">
<circle cx="40" cy="40" r="36.5" stroke="#DDDDDD" stroke-width="7"/>
<mask id="path-2-inside-1_130_605" fill="white">
<path d="M40 0C30.4542 -1.13833e-07 21.223 3.41382 13.9741 9.6248C6.72518 15.8358 1.93644 24.4344 0.472911 33.8674C-0.990619 43.3003 0.967564 52.9457 5.99374 61.0612C11.0199 69.1767 18.7827 75.2271 27.8797 78.1195C36.9768 81.012 46.8084 80.5558 55.5985 76.8332C64.3886 73.1107 71.5576 66.3674 75.8106 57.8213C80.0636 49.2752 81.1201 39.4899 78.7893 30.233C76.4584 20.9761 70.8939 12.858 63.1009 7.34504L59.0698 13.0434C65.5029 17.5943 70.0964 24.2958 72.0205 31.9374C73.9446 39.579 73.0725 47.6567 69.5616 54.7115C66.0508 61.7662 60.1328 67.3328 52.8765 70.4058C45.6203 73.4787 37.5044 73.8553 29.9947 71.4676C22.4851 69.0799 16.077 64.0853 11.9279 57.386C7.77878 50.6867 6.16231 42.7244 7.37045 34.9375C8.57859 27.1506 12.5317 20.0525 18.5157 14.9253C24.4996 9.79817 32.1199 6.98006 40 6.98006L40 0Z"/>
</mask>
<path d="M40 0C30.4542 -1.13833e-07 21.223 3.41382 13.9741 9.6248C6.72518 15.8358 1.93644 24.4344 0.472911 33.8674C-0.990619 43.3003 0.967564 52.9457 5.99374 61.0612C11.0199 69.1767 18.7827 75.2271 27.8797 78.1195C36.9768 81.012 46.8084 80.5558 55.5985 76.8332C64.3886 73.1107 71.5576 66.3674 75.8106 57.8213C80.0636 49.2752 81.1201 39.4899 78.7893 30.233C76.4584 20.9761 70.8939 12.858 63.1009 7.34504L59.0698 13.0434C65.5029 17.5943 70.0964 24.2958 72.0205 31.9374C73.9446 39.579 73.0725 47.6567 69.5616 54.7115C66.0508 61.7662 60.1328 67.3328 52.8765 70.4058C45.6203 73.4787 37.5044 73.8553 29.9947 71.4676C22.4851 69.0799 16.077 64.0853 11.9279 57.386C7.77878 50.6867 6.16231 42.7244 7.37045 34.9375C8.57859 27.1506 12.5317 20.0525 18.5157 14.9253C24.4996 9.79817 32.1199 6.98006 40 6.98006L40 0Z" stroke="#E34F26" stroke-width="14" mask="url(#path-2-inside-1_130_605)"/>
<path d="M29.0638 62.8472C27.9438 62.8472 27.1598 62.3992 26.5858 61.7972L27.2998 60.9852C27.7338 61.4892 28.3638 61.7832 29.0218 61.7832C30.3938 61.7832 31.5838 60.5932 31.5838 57.0792C31.5838 54.5592 30.7858 53.2012 29.3438 53.2012C28.3638 53.2012 27.6078 54.1252 27.6078 55.5392C27.6078 56.9112 28.2238 57.8212 29.4418 57.8212C30.1278 57.8212 30.9258 57.4152 31.5978 56.3932L31.6678 57.4152C31.0238 58.2272 30.1138 58.7592 29.2318 58.7592C27.5098 58.7592 26.4038 57.6672 26.4038 55.5392C26.4038 53.5512 27.7478 52.2072 29.3438 52.2072C31.3178 52.2072 32.7878 53.8172 32.7878 57.0792C32.7878 61.2512 30.9958 62.8472 29.0638 62.8472ZM37.4454 62.8472C35.4854 62.8472 34.2394 61.0692 34.2394 57.4852C34.2394 53.9292 35.4854 52.2072 37.4454 52.2072C39.3774 52.2072 40.6234 53.9292 40.6234 57.4852C40.6234 61.0692 39.3774 62.8472 37.4454 62.8472ZM37.4454 61.8112C38.6074 61.8112 39.3914 60.5092 39.3914 57.4852C39.3914 54.5032 38.6074 53.2292 37.4454 53.2292C36.2694 53.2292 35.4714 54.5032 35.4714 57.4852C35.4714 60.5092 36.2694 61.8112 37.4454 61.8112ZM44.1891 58.6752C42.7751 58.6752 41.8511 57.4992 41.8511 55.4272C41.8511 53.3692 42.7751 52.2072 44.1891 52.2072C45.6031 52.2072 46.5271 53.3692 46.5271 55.4272C46.5271 57.4992 45.6031 58.6752 44.1891 58.6752ZM44.1891 57.8912C45.0011 57.8912 45.5471 57.0512 45.5471 55.4272C45.5471 53.7892 45.0011 52.9912 44.1891 52.9912C43.3771 52.9912 42.8171 53.7892 42.8171 55.4272C42.8171 57.0512 43.3771 57.8912 44.1891 57.8912ZM44.4831 62.8472L50.1391 52.2072H51.0071L45.3511 62.8472H44.4831ZM51.3431 62.8472C49.9291 62.8472 49.0051 61.6712 49.0051 59.5852C49.0051 57.5412 49.9291 56.3652 51.3431 56.3652C52.7291 56.3652 53.6671 57.5412 53.6671 59.5852C53.6671 61.6712 52.7291 62.8472 51.3431 62.8472ZM51.3431 62.0632C52.1411 62.0632 52.7011 61.2232 52.7011 59.5852C52.7011 57.9472 52.1411 57.1632 51.3431 57.1632C50.5311 57.1632 49.9711 57.9472 49.9711 59.5852C49.9711 61.2232 50.5311 62.0632 51.3431 62.0632Z" fill="black"/>
<path d="M25.125 15H54.875L52.1692 45.5476L39.9674 49L27.8351 45.5462L25.125 15ZM35.0856 28.8125L34.7569 24.962L49.0072 24.9662L49.333 21.2517L30.667 21.2475L31.6558 32.595H44.5843L44.1225 37.4485L40 38.5875L35.8137 37.44L35.5474 34.4508H31.8513L32.3188 40.3597L40 42.4139L47.6202 40.3697L48.6742 28.8139H35.0856V28.8125Z" fill="black"/>
</svg>
