<svg width="80" height="80" viewBox="0 0 80 80" fill="none" xmlns="http://www.w3.org/2000/svg">
<circle cx="40" cy="40" r="36.5" stroke="#DDDDDD" stroke-width="7"/>
<mask id="path-2-inside-1_130_587" fill="white">
<path d="M40 0C30.4542 -1.13833e-07 21.223 3.41382 13.9741 9.6248C6.72518 15.8358 1.93644 24.4344 0.472911 33.8674C-0.990619 43.3003 0.967564 52.9457 5.99374 61.0612C11.0199 69.1767 18.7827 75.2271 27.8797 78.1195C36.9768 81.012 46.8084 80.5558 55.5985 76.8332C64.3886 73.1107 71.5576 66.3674 75.8106 57.8213C80.0636 49.2752 81.1201 39.4899 78.7893 30.233C76.4584 20.9761 70.8939 12.858 63.1009 7.34504L59.0791 13.0302C65.5153 17.5834 70.111 24.2882 72.0361 31.9335C73.9611 39.5787 73.0886 47.6604 69.576 54.7186C66.0635 61.7768 60.1426 67.3462 52.8828 70.4206C45.6231 73.495 37.5031 73.8718 29.9899 71.483C22.4766 69.0941 16.0653 64.097 11.9142 57.3945C7.76307 50.6919 6.14581 42.7258 7.35454 34.935C8.56327 27.1443 12.5183 20.0427 18.5052 14.9131C24.4921 9.78344 32.1161 6.96396 40 6.96396L40 0Z"/>
</mask>
<path d="M40 0C30.4542 -1.13833e-07 21.223 3.41382 13.9741 9.6248C6.72518 15.8358 1.93644 24.4344 0.472911 33.8674C-0.990619 43.3003 0.967564 52.9457 5.99374 61.0612C11.0199 69.1767 18.7827 75.2271 27.8797 78.1195C36.9768 81.012 46.8084 80.5558 55.5985 76.8332C64.3886 73.1107 71.5576 66.3674 75.8106 57.8213C80.0636 49.2752 81.1201 39.4899 78.7893 30.233C76.4584 20.9761 70.8939 12.858 63.1009 7.34504L59.0791 13.0302C65.5153 17.5834 70.111 24.2882 72.0361 31.9335C73.9611 39.5787 73.0886 47.6604 69.576 54.7186C66.0635 61.7768 60.1426 67.3462 52.8828 70.4206C45.6231 73.495 37.5031 73.8718 29.9899 71.483C22.4766 69.0941 16.0653 64.097 11.9142 57.3945C7.76307 50.6919 6.14581 42.7258 7.35454 34.935C8.56327 27.1443 12.5183 20.0427 18.5052 14.9131C24.4921 9.78344 32.1161 6.96396 40 6.96396L40 0Z" stroke="#F24E1E" stroke-width="16" mask="url(#path-2-inside-1_130_587)"/>
<path d="M28.6029 63.3827C27.4829 63.3827 26.6989 62.9347 26.1249 62.3327L26.8389 61.5207C27.2729 62.0247 27.9029 62.3187 28.5609 62.3187C29.9329 62.3187 31.1229 61.1287 31.1229 57.6147C31.1229 55.0947 30.3249 53.7367 28.8829 53.7367C27.9029 53.7367 27.1469 54.6607 27.1469 56.0747C27.1469 57.4467 27.7629 58.3567 28.9809 58.3567C29.6669 58.3567 30.4649 57.9507 31.1369 56.9287L31.2069 57.9507C30.5629 58.7627 29.6529 59.2947 28.7709 59.2947C27.0489 59.2947 25.9429 58.2027 25.9429 56.0747C25.9429 54.0867 27.2869 52.7427 28.8829 52.7427C30.8569 52.7427 32.3269 54.3527 32.3269 57.6147C32.3269 61.7867 30.5349 63.3827 28.6029 63.3827ZM36.9845 63.3827C35.0245 63.3827 33.7785 61.6047 33.7785 58.0207C33.7785 54.4647 35.0245 52.7427 36.9845 52.7427C38.9165 52.7427 40.1625 54.4647 40.1625 58.0207C40.1625 61.6047 38.9165 63.3827 36.9845 63.3827ZM36.9845 62.3467C38.1465 62.3467 38.9305 61.0447 38.9305 58.0207C38.9305 55.0387 38.1465 53.7647 36.9845 53.7647C35.8085 53.7647 35.0105 55.0387 35.0105 58.0207C35.0105 61.0447 35.8085 62.3467 36.9845 62.3467ZM43.7281 59.2107C42.3141 59.2107 41.3901 58.0347 41.3901 55.9627C41.3901 53.9047 42.3141 52.7427 43.7281 52.7427C45.1421 52.7427 46.0661 53.9047 46.0661 55.9627C46.0661 58.0347 45.1421 59.2107 43.7281 59.2107ZM43.7281 58.4267C44.5401 58.4267 45.0861 57.5867 45.0861 55.9627C45.0861 54.3247 44.5401 53.5267 43.7281 53.5267C42.9161 53.5267 42.3561 54.3247 42.3561 55.9627C42.3561 57.5867 42.9161 58.4267 43.7281 58.4267ZM44.0221 63.3827L49.6781 52.7427H50.5461L44.8901 63.3827H44.0221ZM50.8821 63.3827C49.4681 63.3827 48.5441 62.2067 48.5441 60.1207C48.5441 58.0767 49.4681 56.9007 50.8821 56.9007C52.2681 56.9007 53.2061 58.0767 53.2061 60.1207C53.2061 62.2067 52.2681 63.3827 50.8821 63.3827ZM50.8821 62.5987C51.6801 62.5987 52.2401 61.7587 52.2401 60.1207C52.2401 58.4827 51.6801 57.6987 50.8821 57.6987C50.0701 57.6987 49.5101 58.4827 49.5101 60.1207C49.5101 61.7587 50.0701 62.5987 50.8821 62.5987Z" fill="black"/>
<path d="M45.4569 27.7231H38.9572V15H45.4569C48.9646 15 51.8177 17.8532 51.8177 21.3608C51.8177 24.8685 48.9646 27.7231 45.4569 27.7231ZM41.0412 25.6392H45.4569C47.8157 25.6392 49.7338 23.7196 49.7338 21.3623C49.7338 19.0049 47.8142 17.0853 45.4569 17.0853H41.0412V25.6392ZM41.0412 27.7231H34.5429C31.0352 27.7231 28.1821 24.8699 28.1821 21.3623C28.1821 17.8546 31.0352 15 34.5429 15H41.0426V27.7231H41.0412ZM34.5429 17.0839C32.1842 17.0839 30.266 19.0035 30.266 21.3608C30.266 23.7182 32.1842 25.6392 34.5429 25.6392H38.9587V17.0839H34.5429ZM41.0412 38.3608H34.5429C31.0352 38.3608 28.1821 35.5077 28.1821 32C28.1821 28.4923 31.0352 25.6392 34.5429 25.6392H41.0426V38.3608H41.0412ZM34.5429 27.7231C32.1842 27.7231 30.266 29.6427 30.266 32C30.266 34.3573 32.1856 36.2769 34.5429 36.2769H38.9587V27.7231H34.5429ZM34.5769 49C31.0508 49 28.1807 46.1468 28.1807 42.6392C28.1807 39.1315 31.0338 36.2783 34.5415 36.2783H41.0412V42.5697C41.0412 46.1157 38.1412 49 34.5769 49ZM34.5429 38.3608C33.4091 38.3623 32.3221 38.8134 31.5203 39.6152C30.7186 40.4169 30.2675 41.5039 30.266 42.6378C30.266 44.9965 32.1997 46.9147 34.5783 46.9147C36.9937 46.9147 38.9601 44.9653 38.9601 42.5683V38.3608H34.5429ZM45.4569 38.3608H45.3181C41.8104 38.3608 38.9572 35.5077 38.9572 32C38.9572 28.4923 41.8104 25.6392 45.3181 25.6392H45.4569C48.9646 25.6392 51.8177 28.4923 51.8177 32C51.8177 35.5077 48.9646 38.3608 45.4569 38.3608ZM45.3195 27.7231C42.9607 27.7231 41.0426 29.6427 41.0426 32C41.0426 34.3573 42.9622 36.2769 45.3195 36.2769H45.4583C47.8171 36.2769 49.7352 34.3573 49.7352 32C49.7352 29.6427 47.8142 27.7231 45.4569 27.7231H45.3195Z" fill="black"/>
</svg>
