<svg width="80" height="80" viewBox="0 0 80 80" fill="none" xmlns="http://www.w3.org/2000/svg">
<circle cx="40" cy="40" r="36.5" stroke="#DDDDDD" stroke-width="7"/>
<mask id="path-2-inside-1_130_599" fill="white">
<path d="M40 0C32.6128 -8.80913e-08 25.3699 2.04567 19.0742 5.91023C12.7785 9.7748 7.67601 15.3073 4.33227 21.8944C0.988534 28.4815 -0.465783 35.8659 0.13054 43.229C0.726864 50.592 3.35053 57.6462 7.7107 63.6093C12.0709 69.5725 17.9972 74.2118 24.8327 77.0129C31.6682 79.814 39.1459 80.6674 46.4368 79.4787C53.7278 78.2899 60.5471 75.1054 66.1388 70.2781C71.7306 65.4508 75.8763 59.1693 78.1165 52.13L71.4505 50.0086C69.6021 55.8169 66.1814 60.9999 61.5676 64.983C56.9537 68.9661 51.327 71.5937 45.3112 72.5745C39.2953 73.5554 33.1253 72.8512 27.4852 70.54C21.8451 68.2287 16.9552 64.4008 13.3575 59.4805C9.7599 54.5601 7.59507 48.7397 7.10303 42.6643C6.61099 36.5889 7.81098 30.4959 10.57 25.0608C13.3289 19.6256 17.5391 15.0607 22.7338 11.872C27.9285 8.68324 33.9047 6.99532 40 6.99532L40 0Z"/>
</mask>
<path d="M40 0C32.6128 -8.80913e-08 25.3699 2.04567 19.0742 5.91023C12.7785 9.7748 7.67601 15.3073 4.33227 21.8944C0.988534 28.4815 -0.465783 35.8659 0.13054 43.229C0.726864 50.592 3.35053 57.6462 7.7107 63.6093C12.0709 69.5725 17.9972 74.2118 24.8327 77.0129C31.6682 79.814 39.1459 80.6674 46.4368 79.4787C53.7278 78.2899 60.5471 75.1054 66.1388 70.2781C71.7306 65.4508 75.8763 59.1693 78.1165 52.13L71.4505 50.0086C69.6021 55.8169 66.1814 60.9999 61.5676 64.983C56.9537 68.9661 51.327 71.5937 45.3112 72.5745C39.2953 73.5554 33.1253 72.8512 27.4852 70.54C21.8451 68.2287 16.9552 64.4008 13.3575 59.4805C9.7599 54.5601 7.59507 48.7397 7.10303 42.6643C6.61099 36.5889 7.81098 30.4959 10.57 25.0608C13.3289 19.6256 17.5391 15.0607 22.7338 11.872C27.9285 8.68324 33.9047 6.99532 40 6.99532L40 0Z" stroke="#F05032" stroke-width="14" mask="url(#path-2-inside-1_130_599)"/>
<path d="M27.9706 62.1867C28.1526 58.3087 28.8526 55.8167 30.8686 53.0167H25.8986V51.9247H32.3106V52.6947C29.9026 55.7887 29.4686 58.1827 29.3006 62.1867H27.9706ZM36.8702 62.3827C34.9102 62.3827 33.6642 60.6047 33.6642 57.0207C33.6642 53.4647 34.9102 51.7427 36.8702 51.7427C38.8022 51.7427 40.0482 53.4647 40.0482 57.0207C40.0482 60.6047 38.8022 62.3827 36.8702 62.3827ZM36.8702 61.3467C38.0322 61.3467 38.8162 60.0447 38.8162 57.0207C38.8162 54.0387 38.0322 52.7647 36.8702 52.7647C35.6942 52.7647 34.8962 54.0387 34.8962 57.0207C34.8962 60.0447 35.6942 61.3467 36.8702 61.3467ZM43.6139 58.2107C42.1999 58.2107 41.2759 57.0347 41.2759 54.9627C41.2759 52.9047 42.1999 51.7427 43.6139 51.7427C45.0279 51.7427 45.9519 52.9047 45.9519 54.9627C45.9519 57.0347 45.0279 58.2107 43.6139 58.2107ZM43.6139 57.4267C44.4259 57.4267 44.9719 56.5867 44.9719 54.9627C44.9719 53.3247 44.4259 52.5267 43.6139 52.5267C42.8019 52.5267 42.2419 53.3247 42.2419 54.9627C42.2419 56.5867 42.8019 57.4267 43.6139 57.4267ZM43.9079 62.3827L49.5639 51.7427H50.4319L44.7759 62.3827H43.9079ZM50.7679 62.3827C49.3539 62.3827 48.4299 61.2067 48.4299 59.1207C48.4299 57.0767 49.3539 55.9007 50.7679 55.9007C52.1539 55.9007 53.0919 57.0767 53.0919 59.1207C53.0919 61.2067 52.1539 62.3827 50.7679 62.3827ZM50.7679 61.5987C51.5659 61.5987 52.1259 60.7587 52.1259 59.1207C52.1259 57.4827 51.5659 56.6987 50.7679 56.6987C49.9559 56.6987 49.3959 57.4827 49.3959 59.1207C49.3959 60.7587 49.9559 61.5987 50.7679 61.5987Z" fill="black"/>
<g clip-path="url(#clip0_130_599)">
<path d="M56.3568 30.4843L41.5116 15.6404C40.6559 14.7862 39.2704 14.7862 38.4119 15.6404L35.3363 18.7217L39.2463 22.6317C40.1601 22.3271 41.1999 22.5325 41.9224 23.2564C42.6534 23.986 42.8546 25.0386 42.5429 25.9481L46.3084 29.7164C47.2222 29.4005 48.2733 29.6059 49.0001 30.3327C50.0215 31.3527 50.0215 33.0017 49.0001 34.0217C47.9815 35.0403 46.3353 35.0403 45.3167 34.0217C44.5532 33.2553 44.3619 32.1276 44.7444 31.194L41.2183 27.6864V36.9301C41.4677 37.0519 41.7028 37.2177 41.9097 37.4231C42.9197 38.4445 42.9197 40.0907 41.9097 41.1064C40.8911 42.1279 39.2336 42.1279 38.2136 41.1064C37.195 40.0879 37.195 38.4445 38.2136 37.4259C38.4714 37.1709 38.7618 36.9783 39.0707 36.8508V27.5164C38.7632 27.3874 38.47 27.2019 38.2207 26.9483C37.4486 26.1762 37.263 25.0471 37.6597 24.1022L33.8177 20.2418L23.6375 30.4149C22.7875 31.2719 22.7875 32.6589 23.6375 33.5159L38.4842 48.3584C39.3398 49.214 40.7253 49.214 41.581 48.3584L56.3568 33.5825C57.2139 32.7283 57.2139 31.3414 56.3568 30.4843Z" fill="black"/>
</g>
<defs>
<clipPath id="clip0_130_599">
<rect width="34" height="34" fill="white" transform="translate(23 15)"/>
</clipPath>
</defs>
</svg>
