<svg width="80" height="80" viewBox="0 0 80 80" fill="none" xmlns="http://www.w3.org/2000/svg">
<circle cx="40" cy="40" r="36.5" stroke="#DDDDDD" stroke-width="7"/>
<mask id="path-2-inside-1_130_593" fill="white">
<path d="M40 0C33.7044 -7.50738e-08 27.4978 1.486 21.8848 4.33713C16.2719 7.18825 11.4112 11.324 7.69805 16.408C3.98492 21.4919 1.52424 27.3806 0.516148 33.5949C-0.491946 39.8092 -0.0189828 46.1737 1.89657 52.1708L8.55449 50.0442C6.97365 45.095 6.58333 39.8426 7.41528 34.7141C8.24723 29.5856 10.2779 24.7259 13.3423 20.5303C16.4066 16.3346 20.418 12.9215 25.0501 10.5686C29.6823 8.21566 34.8045 6.98932 40 6.98932L40 0Z"/>
</mask>
<path d="M40 0C33.7044 -7.50738e-08 27.4978 1.486 21.8848 4.33713C16.2719 7.18825 11.4112 11.324 7.69805 16.408C3.98492 21.4919 1.52424 27.3806 0.516148 33.5949C-0.491946 39.8092 -0.0189828 46.1737 1.89657 52.1708L8.55449 50.0442C6.97365 45.095 6.58333 39.8426 7.41528 34.7141C8.24723 29.5856 10.2779 24.7259 13.3423 20.5303C16.4066 16.3346 20.418 12.9215 25.0501 10.5686C29.6823 8.21566 34.8045 6.98932 40 6.98932L40 0Z" stroke="#61DAFB" stroke-width="8" mask="url(#path-2-inside-1_130_593)"/>
<path d="M30.9854 63.5681C29.3754 63.5681 28.3814 62.8961 27.7094 62.1541L28.3534 61.3141C28.9554 61.9441 29.7254 62.5041 30.9014 62.5041C32.1194 62.5041 32.9874 61.7621 32.9874 60.5861C32.9874 59.3541 32.1614 58.5421 29.7954 58.5421V57.5481C31.9094 57.5481 32.6234 56.7081 32.6234 55.5881C32.6234 54.6081 31.9654 53.9641 30.9014 53.9641C30.0754 53.9641 29.3474 54.3841 28.7734 54.9721L28.0874 54.1461C28.8574 53.4461 29.7674 52.9281 30.9434 52.9281C32.6654 52.9281 33.9254 53.8661 33.9254 55.5041C33.9254 56.7501 33.1974 57.5761 32.1054 57.9681V58.0241C33.3094 58.3181 34.2894 59.2281 34.2894 60.6421C34.2894 62.4621 32.8194 63.5681 30.9854 63.5681ZM38.9611 63.5681C37.0011 63.5681 35.7551 61.7901 35.7551 58.2061C35.7551 54.6501 37.0011 52.9281 38.9611 52.9281C40.8931 52.9281 42.1391 54.6501 42.1391 58.2061C42.1391 61.7901 40.8931 63.5681 38.9611 63.5681ZM38.9611 62.5321C40.1231 62.5321 40.9071 61.2301 40.9071 58.2061C40.9071 55.2241 40.1231 53.9501 38.9611 53.9501C37.7851 53.9501 36.9871 55.2241 36.9871 58.2061C36.9871 61.2301 37.7851 62.5321 38.9611 62.5321ZM45.7047 59.3961C44.2907 59.3961 43.3667 58.2201 43.3667 56.1481C43.3667 54.0901 44.2907 52.9281 45.7047 52.9281C47.1187 52.9281 48.0427 54.0901 48.0427 56.1481C48.0427 58.2201 47.1187 59.3961 45.7047 59.3961ZM45.7047 58.6121C46.5167 58.6121 47.0627 57.7721 47.0627 56.1481C47.0627 54.5101 46.5167 53.7121 45.7047 53.7121C44.8927 53.7121 44.3327 54.5101 44.3327 56.1481C44.3327 57.7721 44.8927 58.6121 45.7047 58.6121ZM45.9987 63.5681L51.6547 52.9281H52.5227L46.8667 63.5681H45.9987ZM52.8587 63.5681C51.4447 63.5681 50.5207 62.3921 50.5207 60.3061C50.5207 58.2621 51.4447 57.0861 52.8587 57.0861C54.2447 57.0861 55.1827 58.2621 55.1827 60.3061C55.1827 62.3921 54.2447 63.5681 52.8587 63.5681ZM52.8587 62.7841C53.6567 62.7841 54.2167 61.9441 54.2167 60.3061C54.2167 58.6681 53.6567 57.8841 52.8587 57.8841C52.0467 57.8841 51.4867 58.6681 51.4867 60.3061C51.4867 61.9441 52.0467 62.7841 52.8587 62.7841Z" fill="black"/>
<path d="M43.1592 32.0057C43.1592 32.8456 42.8256 33.651 42.2319 34.2451C41.6381 34.8391 40.8328 35.173 39.9929 35.1733C39.1528 35.1733 38.3471 34.8396 37.753 34.2456C37.159 33.6515 36.8252 32.8458 36.8252 32.0057C36.8252 31.1658 37.1588 30.3603 37.7525 29.7663C38.3463 29.1723 39.1516 28.8384 39.9915 28.838C40.8316 28.838 41.6373 29.1717 42.2314 29.7658C42.8254 30.3599 43.1592 31.1656 43.1592 32.0057ZM46.9105 16.8615C45.0037 16.8615 42.5089 18.2215 39.9858 20.576C37.4642 18.2343 34.968 16.8898 33.0626 16.8898C32.4817 16.8898 31.9533 17.0216 31.4958 17.2837C29.5478 18.4071 29.1115 21.9077 30.1173 26.3008C25.805 27.6324 23 29.7617 23 32.0057C23 34.2582 25.8192 36.3931 30.1443 37.7148C29.1469 42.1249 29.5917 45.6312 31.5439 46.7532C31.9972 47.0181 32.5214 47.1428 33.1051 47.1428C35.0105 47.1428 37.5067 45.7828 40.0297 43.4254C42.5514 45.7686 45.0476 47.113 46.953 47.113C47.5338 47.113 48.0622 46.9855 48.5198 46.7234C50.4663 45.6014 50.9041 42.1008 49.8982 37.7063C54.195 36.386 57 34.2525 57 32.0057C57 29.7532 54.1808 27.6183 49.8558 26.2937C50.8531 21.8878 50.4082 18.3788 48.4561 17.2553C48.0056 16.9947 47.4828 16.8629 46.9105 16.8615ZM46.9034 18.4057V18.4142C47.2222 18.4142 47.4786 18.4765 47.6939 18.5941C48.6374 19.1353 49.0468 21.1937 48.7281 23.8414C48.6516 24.4931 48.5269 25.1802 48.3739 25.8814C47.0139 25.5471 45.5321 25.2907 43.9723 25.1249C43.0373 23.8428 42.0669 22.6783 41.0894 21.6583C43.3447 19.5617 45.4627 18.4113 46.9048 18.4071L46.9034 18.4057ZM33.0626 18.434C34.4962 18.434 36.6241 19.5787 38.8851 21.664C37.9133 22.684 36.9442 23.8414 36.0234 25.1235C34.4552 25.2893 32.9719 25.5457 31.6133 25.8857C31.4547 25.1915 31.3371 24.52 31.2535 23.874C30.9277 21.2277 31.33 19.1707 32.265 18.6224C32.5342 18.4949 32.8317 18.4411 33.0626 18.434ZM39.9787 22.7548C40.6233 23.4178 41.2679 24.1602 41.9054 24.9705C41.2821 24.9422 40.6446 24.9223 40 24.9223C39.3483 24.9223 38.7038 24.9365 38.0733 24.9705C38.6967 24.1602 39.3412 23.4193 39.9787 22.7548ZM40 26.475C41.0483 26.475 42.0924 26.5232 43.1195 26.6068C43.6947 27.4313 44.2557 28.311 44.7954 29.2418C45.3224 30.1484 45.8012 31.0693 46.2376 31.9986C45.8012 32.9265 45.3224 33.8544 44.8025 34.7611C44.2642 35.6961 43.7074 36.5858 43.1308 37.4103C42.0995 37.4995 41.054 37.5491 40 37.5491C38.9517 37.5491 37.9076 37.4995 36.8805 37.4173C36.3053 36.5928 35.7443 35.7117 35.2046 34.7823C34.6776 33.8757 34.1987 32.9548 33.7624 32.0255C34.1917 31.0948 34.6776 30.1654 35.1975 29.2573C35.7358 28.3223 36.2926 27.4355 36.8692 26.611C37.9005 26.5203 38.946 26.4722 40 26.4722V26.475ZM34.8504 26.8348C34.5104 27.3689 34.1704 27.9158 33.8531 28.4782C33.5343 29.0307 33.2368 29.586 32.9535 30.1413C32.5781 29.212 32.2593 28.2855 31.9958 27.3831C32.9025 27.1706 33.8587 26.9808 34.8504 26.8348ZM45.1354 26.8348C46.12 26.9808 47.0692 27.1607 47.9773 27.3831C47.7223 28.2784 47.4035 29.1993 47.0423 30.1215C46.7589 29.569 46.4614 29.0123 46.1356 28.4583C45.8168 27.903 45.4768 27.3618 45.1368 26.8348H45.1354ZM49.4747 27.7911C50.1603 28.0036 50.812 28.2402 51.4226 28.4966C53.8762 29.5449 55.4629 30.9163 55.4629 32.0043C55.4558 33.0923 53.8692 34.4693 51.4155 35.5105C50.8205 35.7655 50.1688 35.995 49.4959 36.2089C49.0992 34.8518 48.5808 33.4379 47.9376 31.9873C48.5751 30.5465 49.0851 29.1398 49.4747 27.7883V27.7911ZM30.4984 27.7968C30.8923 29.1568 31.4122 30.5692 32.0567 32.0184C31.4192 33.4592 30.9064 34.8659 30.5183 36.2174C29.8326 36.0049 29.1809 35.7669 28.5774 35.5091C26.1237 34.465 24.5371 33.0923 24.5371 32.0043C24.5371 30.9163 26.1237 29.5364 28.5774 28.4966C29.1724 28.2416 29.8241 28.0121 30.4984 27.7968ZM47.0423 33.8601C47.4177 34.7908 47.7364 35.7188 47.9999 36.6198C47.0932 36.8422 46.1356 37.0306 45.1439 37.1723C45.4839 36.641 45.8239 36.0928 46.1427 35.5318C46.4614 34.9793 46.7575 34.4154 47.0423 33.8601ZM32.9535 33.8884C33.2368 34.4438 33.5343 34.9977 33.8602 35.553C34.186 36.1055 34.5189 36.6467 34.8589 37.1723C33.8743 37.0278 32.9252 36.8464 32.0171 36.6254C32.2721 35.7329 32.5922 34.8093 32.9521 33.887L32.9535 33.8884ZM48.3867 38.12C48.5453 38.8184 48.67 39.4913 48.7465 40.1359C49.0723 42.7823 48.67 44.8393 47.735 45.3889C47.5267 45.5164 47.2562 45.5703 46.9374 45.5703C45.5037 45.5703 43.3759 44.427 41.1149 42.3403C42.0867 41.3203 43.0557 40.1643 43.9766 38.8836C45.5448 38.7164 47.0281 38.46 48.3867 38.12ZM31.6275 38.1342C32.9875 38.4657 34.4693 38.7221 36.0291 38.8878C36.9641 40.1699 37.9345 41.3344 38.912 42.353C36.6524 44.4539 34.5317 45.6043 33.0895 45.6043C32.7778 45.5972 32.5143 45.5334 32.3061 45.4173C31.3626 44.8789 30.9532 42.8191 31.2719 40.1713C31.3484 39.5197 31.4745 38.834 31.6275 38.1342ZM38.0875 39.0408C38.7108 39.0692 39.3483 39.089 39.9929 39.089C40.6446 39.089 41.2892 39.0748 41.9196 39.0408C41.2962 39.8512 40.6517 40.5921 40.0142 41.2579C39.3696 40.5921 38.725 39.8512 38.0875 39.0408Z" fill="black"/>
</svg>
