<svg width="80" height="80" viewBox="0 0 80 80" fill="none" xmlns="http://www.w3.org/2000/svg">
<circle cx="40" cy="40" r="36.5" stroke="#DDDDDD" stroke-width="7"/>
<mask id="path-2-inside-1_130_575" fill="white">
<path d="M40 0C30.4504 -1.13877e-07 21.216 3.41648 13.9659 9.63183C6.71584 15.8472 1.92861 24.4513 0.469604 33.8887C-0.989398 43.3262 0.976107 52.9742 6.01081 61.0887C11.0455 69.2033 18.8172 75.2489 27.9209 78.1326C37.0247 81.0164 46.8597 80.548 55.6482 76.8121C64.4367 73.0763 71.5987 66.3195 75.8395 57.7632C80.0802 49.207 81.12 39.4158 78.7707 30.1597C76.4215 20.9037 70.8382 12.7934 63.0303 7.29521L58.8607 13.2164C65.255 17.7192 69.8273 24.3611 71.7513 31.9413C73.6752 39.5216 72.8237 47.54 69.3507 54.5472C65.8777 61.5544 60.0124 67.0878 52.8151 70.1473C45.6178 73.2067 37.5633 73.5903 30.1078 71.2287C22.6523 68.867 16.2877 63.916 12.1646 57.2706C8.0414 50.6252 6.43175 42.724 7.6266 34.9952C8.82145 27.2664 12.7419 20.2201 18.6794 15.13C24.6168 10.0399 32.1794 7.24202 40 7.24202L40 0Z"/>
</mask>
<path d="M40 0C30.4504 -1.13877e-07 21.216 3.41648 13.9659 9.63183C6.71584 15.8472 1.92861 24.4513 0.469604 33.8887C-0.989398 43.3262 0.976107 52.9742 6.01081 61.0887C11.0455 69.2033 18.8172 75.2489 27.9209 78.1326C37.0247 81.0164 46.8597 80.548 55.6482 76.8121C64.4367 73.0763 71.5987 66.3195 75.8395 57.7632C80.0802 49.207 81.12 39.4158 78.7707 30.1597C76.4215 20.9037 70.8382 12.7934 63.0303 7.29521L58.8607 13.2164C65.255 17.7192 69.8273 24.3611 71.7513 31.9413C73.6752 39.5216 72.8237 47.54 69.3507 54.5472C65.8777 61.5544 60.0124 67.0878 52.8151 70.1473C45.6178 73.2067 37.5633 73.5903 30.1078 71.2287C22.6523 68.867 16.2877 63.916 12.1646 57.2706C8.0414 50.6252 6.43175 42.724 7.6266 34.9952C8.82145 27.2664 12.7419 20.2201 18.6794 15.13C24.6168 10.0399 32.1794 7.24202 40 7.24202L40 0Z" stroke="#1572B6" stroke-width="8" mask="url(#path-2-inside-1_130_575)"/>
<path d="M25.125 15H54.875L52.1692 45.5476L39.9674 49L27.8337 45.5462L25.125 15ZM49.3358 21.2517L30.6642 21.2475L30.9659 24.962L45.3097 24.9648L44.9484 28.8125H35.5417L35.8818 32.4576H44.6396L44.1211 37.4485L39.9986 38.5875L35.8109 37.44L35.5446 34.4508H31.8471L32.2579 39.9121L40 42.3247L47.6117 40.1572L49.3358 21.2517Z" fill="black"/>
<path d="M28.9496 62.8472C27.8296 62.8472 27.0456 62.3992 26.4716 61.7972L27.1856 60.9852C27.6196 61.4892 28.2496 61.7832 28.9076 61.7832C30.2796 61.7832 31.4696 60.5932 31.4696 57.0792C31.4696 54.5592 30.6716 53.2012 29.2296 53.2012C28.2496 53.2012 27.4936 54.1252 27.4936 55.5392C27.4936 56.9112 28.1096 57.8212 29.3276 57.8212C30.0136 57.8212 30.8116 57.4152 31.4836 56.3932L31.5536 57.4152C30.9096 58.2272 29.9996 58.7592 29.1176 58.7592C27.3956 58.7592 26.2896 57.6672 26.2896 55.5392C26.2896 53.5512 27.6336 52.2072 29.2296 52.2072C31.2036 52.2072 32.6736 53.8172 32.6736 57.0792C32.6736 61.2512 30.8816 62.8472 28.9496 62.8472ZM37.3312 62.8472C35.3712 62.8472 34.1252 61.0692 34.1252 57.4852C34.1252 53.9292 35.3712 52.2072 37.3312 52.2072C39.2632 52.2072 40.5092 53.9292 40.5092 57.4852C40.5092 61.0692 39.2632 62.8472 37.3312 62.8472ZM37.3312 61.8112C38.4932 61.8112 39.2772 60.5092 39.2772 57.4852C39.2772 54.5032 38.4932 53.2292 37.3312 53.2292C36.1552 53.2292 35.3572 54.5032 35.3572 57.4852C35.3572 60.5092 36.1552 61.8112 37.3312 61.8112ZM44.0748 58.6752C42.6608 58.6752 41.7368 57.4992 41.7368 55.4272C41.7368 53.3692 42.6608 52.2072 44.0748 52.2072C45.4888 52.2072 46.4128 53.3692 46.4128 55.4272C46.4128 57.4992 45.4888 58.6752 44.0748 58.6752ZM44.0748 57.8912C44.8868 57.8912 45.4328 57.0512 45.4328 55.4272C45.4328 53.7892 44.8868 52.9912 44.0748 52.9912C43.2628 52.9912 42.7028 53.7892 42.7028 55.4272C42.7028 57.0512 43.2628 57.8912 44.0748 57.8912ZM44.3688 62.8472L50.0248 52.2072H50.8928L45.2368 62.8472H44.3688ZM51.2288 62.8472C49.8148 62.8472 48.8908 61.6712 48.8908 59.5852C48.8908 57.5412 49.8148 56.3652 51.2288 56.3652C52.6148 56.3652 53.5528 57.5412 53.5528 59.5852C53.5528 61.6712 52.6148 62.8472 51.2288 62.8472ZM51.2288 62.0632C52.0268 62.0632 52.5868 61.2232 52.5868 59.5852C52.5868 57.9472 52.0268 57.1632 51.2288 57.1632C50.4168 57.1632 49.8568 57.9472 49.8568 59.5852C49.8568 61.2232 50.4168 62.0632 51.2288 62.0632Z" fill="black"/>
</svg>
