<svg width="80" height="80" viewBox="0 0 80 80" fill="none" xmlns="http://www.w3.org/2000/svg">
<path d="M76.5 40C76.5 60.1679 60.2005 76.5 40.1152 76.5C20.03 76.5 3.73047 60.1679 3.73047 40C3.73047 19.8321 20.03 3.5 40.1152 3.5C60.2005 3.5 76.5 19.8321 76.5 40Z" stroke="#DDDDDD" stroke-width="7"/>
<mask id="path-2-inside-1_130_581" fill="white">
<path d="M39.8848 0C33.5624 -7.56113e-08 27.3306 1.50734 21.7033 4.39771C16.0761 7.28808 11.2146 11.4787 7.51975 16.6239C3.82493 21.7691 1.40268 27.7214 0.452757 33.9901C-0.497165 40.2587 0.0524608 46.6641 2.0563 52.6778C4.06015 58.6915 7.4608 64.1414 11.9778 68.5779C16.4948 73.0143 21.9987 76.3103 28.0356 78.194C34.0725 80.0778 40.4695 80.4952 46.6989 79.4119C52.9283 78.3286 58.8117 75.7757 63.8639 71.9637L59.6033 66.2844C55.4488 69.4191 50.6108 71.5185 45.4882 72.4093C40.3656 73.3001 35.1052 72.9568 30.141 71.4078C25.1767 69.8588 20.6507 67.1484 16.9363 63.5002C13.2218 59.852 10.4254 55.3705 8.77761 50.4252C7.12981 45.48 6.67784 40.2128 7.45898 35.0579C8.24012 29.9031 10.232 25.0083 13.2703 20.7773C16.3086 16.5463 20.3064 13.1003 24.9338 10.7235C29.5612 8.34667 34.6857 7.10715 39.8848 7.10715L39.8848 0Z"/>
</mask>
<path d="M39.8848 0C33.5624 -7.56113e-08 27.3306 1.50734 21.7033 4.39771C16.0761 7.28808 11.2146 11.4787 7.51975 16.6239C3.82493 21.7691 1.40268 27.7214 0.452757 33.9901C-0.497165 40.2587 0.0524608 46.6641 2.0563 52.6778C4.06015 58.6915 7.4608 64.1414 11.9778 68.5779C16.4948 73.0143 21.9987 76.3103 28.0356 78.194C34.0725 80.0778 40.4695 80.4952 46.6989 79.4119C52.9283 78.3286 58.8117 75.7757 63.8639 71.9637L59.6033 66.2844C55.4488 69.4191 50.6108 71.5185 45.4882 72.4093C40.3656 73.3001 35.1052 72.9568 30.141 71.4078C25.1767 69.8588 20.6507 67.1484 16.9363 63.5002C13.2218 59.852 10.4254 55.3705 8.77761 50.4252C7.12981 45.48 6.67784 40.2128 7.45898 35.0579C8.24012 29.9031 10.232 25.0083 13.2703 20.7773C16.3086 16.5463 20.3064 13.1003 24.9338 10.7235C29.5612 8.34667 34.6857 7.10715 39.8848 7.10715L39.8848 0Z" stroke="#F7DF1E" stroke-width="16" mask="url(#path-2-inside-1_130_581)"/>
<path d="M29.8866 62.5681C27.9126 62.5681 26.4426 60.8741 26.4426 57.4861C26.4426 53.4681 28.2486 51.9281 30.2366 51.9281C31.3006 51.9281 32.0846 52.3761 32.6446 52.9781L31.9306 53.7621C31.5386 53.2861 30.9086 52.9921 30.2926 52.9921C28.8506 52.9921 27.6466 54.1261 27.6466 57.4861C27.6466 60.1181 28.4446 61.5601 29.8866 61.5601C30.8666 61.5601 31.6226 60.6221 31.6226 59.2361C31.6226 57.8361 31.0066 56.9541 29.7746 56.9541C29.1166 56.9541 28.2906 57.3461 27.6046 58.3681L27.5626 57.3461C28.1926 56.5201 29.1446 56.0161 29.9706 56.0161C31.7066 56.0161 32.8266 57.0801 32.8266 59.2361C32.8266 61.2241 31.4686 62.5681 29.8866 62.5681ZM37.3302 62.5681C35.3702 62.5681 34.1242 60.7901 34.1242 57.2061C34.1242 53.6501 35.3702 51.9281 37.3302 51.9281C39.2622 51.9281 40.5082 53.6501 40.5082 57.2061C40.5082 60.7901 39.2622 62.5681 37.3302 62.5681ZM37.3302 61.5321C38.4922 61.5321 39.2762 60.2301 39.2762 57.2061C39.2762 54.2241 38.4922 52.9501 37.3302 52.9501C36.1542 52.9501 35.3562 54.2241 35.3562 57.2061C35.3562 60.2301 36.1542 61.5321 37.3302 61.5321ZM44.0738 58.3961C42.6598 58.3961 41.7358 57.2201 41.7358 55.1481C41.7358 53.0901 42.6598 51.9281 44.0738 51.9281C45.4878 51.9281 46.4118 53.0901 46.4118 55.1481C46.4118 57.2201 45.4878 58.3961 44.0738 58.3961ZM44.0738 57.6121C44.8858 57.6121 45.4318 56.7721 45.4318 55.1481C45.4318 53.5101 44.8858 52.7121 44.0738 52.7121C43.2618 52.7121 42.7018 53.5101 42.7018 55.1481C42.7018 56.7721 43.2618 57.6121 44.0738 57.6121ZM44.3678 62.5681L50.0238 51.9281H50.8918L45.2358 62.5681H44.3678ZM51.2278 62.5681C49.8138 62.5681 48.8898 61.3921 48.8898 59.3061C48.8898 57.2621 49.8138 56.0861 51.2278 56.0861C52.6138 56.0861 53.5518 57.2621 53.5518 59.3061C53.5518 61.3921 52.6138 62.5681 51.2278 62.5681ZM51.2278 61.7841C52.0258 61.7841 52.5858 60.9441 52.5858 59.3061C52.5858 57.6681 52.0258 56.8841 51.2278 56.8841C50.4158 56.8841 49.8558 57.6681 49.8558 59.3061C49.8558 60.9441 50.4158 61.7841 51.2278 61.7841Z" fill="black"/>
<g clip-path="url(#clip0_130_581)">
<path d="M23 15H57V49H23V15ZM54.2148 40.891C53.9669 39.3397 52.9568 38.0364 49.9606 36.8209C48.9179 36.3322 47.7591 35.9922 47.4148 35.2059C47.2859 34.7384 47.2661 34.4834 47.3497 34.2072C47.5622 33.292 48.6459 33.0172 49.4959 33.2722C50.0484 33.4422 50.5584 33.8672 50.8786 34.5472C52.3434 33.5895 52.3434 33.5895 53.3648 32.9534C52.9823 32.3584 52.7925 32.102 52.5347 31.8484C51.6422 30.8497 50.4536 30.3397 48.5198 30.3836L47.5211 30.5097C46.5634 30.7434 45.6511 31.2534 45.0986 31.9334C43.4836 33.7623 43.9497 36.9498 45.9047 38.2673C47.8384 39.7123 50.6661 40.0297 51.0273 41.3911C51.3673 43.0486 49.7948 43.5798 48.2422 43.3886C47.0933 43.1336 46.4572 42.5584 45.7559 41.4959L43.1634 42.9848C43.4609 43.6648 43.8009 43.9609 44.3109 44.5559C46.7759 47.0436 52.9384 46.9161 54.0448 43.1336C54.0859 43.0061 54.3848 42.1348 54.1497 40.7961L54.2148 40.891ZM41.4889 30.6272H38.3043C38.3043 33.3727 38.2915 36.1013 38.2915 38.851C38.2915 40.5963 38.3807 42.1986 38.096 42.6916C37.6285 43.6677 36.4243 43.543 35.8775 43.3716C35.3165 43.0939 35.0317 42.7114 34.7017 42.1603C34.6124 42.0116 34.5458 41.8827 34.5218 41.8827L31.9363 43.4764C32.3684 44.3689 32.9988 45.1367 33.812 45.6255C35.0232 46.348 36.651 46.5818 38.3552 46.1993C39.4645 45.8791 40.4207 45.2203 40.9208 44.2003C41.6433 42.8828 41.4903 41.2678 41.4832 39.4602C41.5002 36.5503 41.4832 33.6391 41.4832 30.7066L41.4889 30.6272Z" fill="black"/>
</g>
<defs>
<clipPath id="clip0_130_581">
<rect width="34" height="34" fill="white" transform="translate(23 15)"/>
</clipPath>
</defs>
</svg>
